<svg width="68" height="93" viewBox="0 0 68 93" fill="none" xmlns="http://www.w3.org/2000/svg">
<path d="M55.4445 63.7738C55.4109 63.7899 55.3941 63.8061 55.3605 63.8222C49.3131 67.339 42.4258 69.775 35.2194 69.9685C34.8834 70.2267 34.0603 70.8397 34.0603 70.8397C34.0603 70.8397 33.2372 70.2428 32.8844 69.9685C25.678 69.775 18.7739 67.339 12.7433 63.8222C12.7097 63.8061 12.6929 63.7899 12.6593 63.7738C12.6089 63.8061 6.30957 67.5649 6.30957 67.5649V75.6471C14.3895 80.2447 23.2926 83.0033 32.8844 83.1969C33.2036 83.5034 34.0603 84.1164 34.0603 84.1164C34.0603 84.1164 34.917 83.4873 35.2194 83.1969C44.828 83.0033 53.7142 80.2447 61.7942 75.6471V67.5649C61.7774 67.5649 55.4949 63.8061 55.4445 63.7738Z" fill="black"/>
<path d="M55.679 65.1129C49.6484 68.4361 42.3915 71.0012 35.3867 71.2109C35.2187 71.3399 34.0428 72.1788 34.0428 72.1788C34.0428 72.1788 32.8669 71.3238 32.6989 71.2109C25.6773 71.0012 18.4372 68.4523 12.4067 65.1129L7.53516 68.3071V75.0342C15.2792 79.2447 23.9471 81.6968 32.8837 81.8742H33.0349C33.0349 81.8742 33.7068 82.4066 34.0428 82.6808C34.362 82.4227 35.0507 81.8742 35.0507 81.8742H35.2019C44.1386 81.6968 52.8233 79.2447 60.5504 75.0342V68.3071L55.679 65.1129Z" fill="url(#paint0_linear)"/>
<path d="M25.0562 4.24618C23.4604 5.10118 23.3764 6.13364 23.7292 6.81119C23.8636 6.7144 24.5523 6.69827 25.325 6.32723C25.661 6.2627 27.4416 6.56921 28.6174 7.48874C28.7518 7.06931 28.819 6.60148 28.819 6.13364C28.819 4.63335 28.1303 3.32665 27.0552 2.50391C26.9376 2.56843 26.8032 2.63296 26.6857 2.69749C25.3418 3.47184 25.5098 4.0042 25.0562 4.24618Z" fill="white"/>
<path d="M66.3632 36.8977C66.3128 36.5267 66.2624 36.1395 66.2288 35.7685C65.8593 32.655 65.96 29.606 66.0272 26.4764C66.0944 23.5726 65.6409 20.8947 64.129 18.3458C62.802 16.0873 60.4166 13.1512 57.5273 12.7802C54.89 12.4414 53.1262 14.6838 50.6904 15.3129C47.9859 15.9905 46.4405 15.9421 43.9207 14.1514C42.8792 13.1996 39.2508 5.90788 38.2429 4.40759C37.1174 2.71371 35.6392 1.69739 33.5394 1.22955C31.2381 0.729457 27.1393 1.63286 26.2658 2.69758C25.661 3.43966 25.3419 3.3106 25.3419 3.84296C25.3083 4.7141 27.1561 6.5693 28.7183 7.56949C27.5592 7.66628 29.3398 10.2152 29.0543 10.8604C28.7855 11.4896 28.8191 14.7806 24.9219 15.4904C21.831 16.2486 18.1522 15.5549 17.2451 15.3129C14.7926 14.6999 12.844 12.5543 10.2066 12.8931C7.31733 13.2641 5.13356 16.1034 3.8065 18.3458C2.29465 20.8947 1.8411 23.5887 1.90829 26.4764C1.97549 29.606 2.07627 32.655 1.70671 35.7685C1.65632 36.1395 1.60592 36.5106 1.57233 36.8977C1.53873 36.7848 15.0781 30.0093 15.4981 29.6221C16.1028 29.0414 16.3884 28.6542 17.0771 27.9767L17.1275 45.4478C17.1275 45.4478 19.2777 42.7537 19.8488 43.3183C20.2016 43.6571 18.7569 52.7879 17.5475 57.0791C17.833 57.0952 19.4625 56.1595 19.6808 56.2725C19.9496 56.4015 19.832 58.5632 19.9328 58.7568C20.084 58.4987 20.6551 57.4985 21.1087 57.6276C21.5455 57.7405 21.5959 58.902 21.5959 59.2408C21.9822 58.4342 22.3182 57.321 22.7381 56.5144C23.1581 55.7401 24.0148 54.2721 24.5859 53.4171C25.0395 52.7557 26.9377 50.8037 28.0632 50.4649C29.5078 50.0293 33.2202 50.4004 33.8754 52.2556H34.1274C35.1856 49.7228 38.8309 49.626 40.6955 51.0134C41.6194 51.7071 44.0047 54.7722 44.4079 55.5465C44.8278 56.3209 45.9869 58.4503 46.3901 59.2892C46.3901 58.9504 46.3565 57.7405 46.7932 57.6276C47.2468 57.5146 47.8179 58.5148 47.9859 58.7568C48.0867 58.5632 47.9691 56.3854 48.2379 56.2725C48.4563 56.1595 50.0857 57.0952 50.3713 57.0791C49.1282 53.3203 48.2379 45.7704 48.2043 45.2542C48.1707 44.8509 48.0195 41.6406 48.2379 40.3823C48.3555 42.6247 48.6242 43.1248 50.808 45.4639C50.8416 44.8832 51.0096 29.5899 50.8584 27.9928C51.5639 28.6703 51.7319 29.1704 52.4375 29.6383C54.6716 31.0902 66.3968 36.7848 66.3632 36.8977Z" fill="#825924"/>
<path d="M50.9754 42.0116C51.009 41.9632 51.0426 41.8987 51.093 41.8503C51.3618 42.0922 51.6137 42.3181 51.8657 42.5762C52.9576 43.6571 53.6967 44.9638 54.587 46.1737C55.5445 47.4804 56.7876 48.4806 57.9971 49.5453C59.005 50.4487 63.8092 53.8526 66.1442 55.2561C66.497 53.4654 66.0434 49.8518 66.0602 48.0289C66.0938 46.3834 66.0434 45.2541 64.5484 44.254C62.6166 42.9472 60.332 42.0922 58.2826 40.963C56.4684 39.9628 54.7886 38.64 52.9912 37.6075C51.6473 36.8332 51.1266 35.962 50.925 34.9296C50.7066 37.301 50.7906 39.6563 50.9754 42.0116Z" fill="url(#paint1_linear)"/>
<path d="M17.0261 42.0116C16.9925 41.9632 16.9589 41.8987 16.9085 41.8503C16.6565 42.0922 16.3877 42.3181 16.1358 42.5762C15.0439 43.6571 14.3048 44.9638 13.4144 46.1737C12.4569 47.4804 11.1971 48.4806 10.0044 49.5453C8.99651 50.4487 4.19221 53.8526 1.85725 55.2561C1.50449 53.4654 1.95804 49.8518 1.92444 48.0289C1.90764 46.3834 1.94124 45.2541 3.43629 44.254C5.38488 42.9472 7.65265 42.0922 9.70203 40.963C11.5162 39.9628 13.1961 38.64 14.9935 37.6075C16.3373 36.8332 16.8581 35.962 17.0597 34.9296C17.2948 37.301 17.1941 39.6563 17.0261 42.0116Z" fill="url(#paint2_linear)"/>
<path d="M40.9812 50.9165C39.6205 49.6098 36.2441 49.2872 34.0099 51.949C31.7757 49.2872 28.3993 49.6098 27.0386 50.9165C26.7867 52.2233 23.1414 63.79 22.6543 64.9999C24.5021 65.5162 24.4517 65.2419 25.678 64.9031C25.9132 68.178 27.9961 66.2421 28.4497 65.7904C30.0623 68.5974 31.5742 66.8713 32.3973 65.5968C32.3973 66.6293 32.8676 67.1455 34.0099 67.936C35.169 67.1455 35.6225 66.6293 35.6225 65.5968C36.4457 66.8551 37.9575 68.5813 39.5701 65.7904C40.0237 66.2421 42.1067 68.178 42.3418 64.9031C43.5513 65.2258 43.5177 65.5162 45.3655 64.9999C44.8784 63.79 41.2332 52.2233 40.9812 50.9165Z" fill="white"/>
<path d="M50.9762 35.8492C52.2361 39.3982 63.9445 44.2863 66.2962 45.6898C66.2962 43.3829 66.0611 41.8826 66.0947 40.0435C66.1283 38.3981 66.0779 37.2688 64.5828 36.2686C62.651 34.9619 60.3665 34.1069 58.3171 32.9777C56.5029 31.9775 54.823 30.6546 53.0256 29.606C51.6817 28.8317 51.161 27.9606 50.9594 26.9281C50.7074 29.2995 50.9258 35.8976 50.9762 35.8492Z" fill="white"/>
<path d="M50.9761 48.2709C50.9761 49.9164 52.1856 51.2069 53.4791 52.2394C53.5295 53.2073 54.067 55.6271 56.15 56.4176C56.15 57.7727 57.3427 59.6763 59.4592 60.6442C59.4592 62.3704 61.6766 63.9029 62.8525 64.1288C62.0294 69.6298 65.473 71.2914 66.2961 71.7754C66.2961 69.4685 66.0609 59.9667 66.0945 58.1276C66.1281 56.4821 66.0442 55.4013 64.5827 54.3527C58.6025 50.0938 53.1431 44.0765 50.8417 41.4792C50.5898 43.8507 50.9257 48.3193 50.9761 48.2709Z" fill="white"/>
<path d="M17.0265 35.8492C15.7667 39.3982 4.0583 44.2863 1.70654 45.6898C1.70654 43.3829 1.94172 41.8826 1.90812 40.0435C1.89132 38.3981 1.92492 37.2688 3.41997 36.2686C5.36856 34.9619 7.63633 34.1069 9.68571 32.9777C11.4999 31.9775 13.1797 30.6546 14.9772 29.606C16.321 28.8317 16.8418 27.9606 17.0433 26.9281C17.2953 29.2995 17.0601 35.8976 17.0265 35.8492Z" fill="white"/>
<path d="M17.0265 48.2709C17.0265 49.9164 15.8171 51.2069 14.5236 52.2394C14.4732 53.2073 13.9357 55.6271 11.8527 56.4176C11.8527 57.7727 10.66 59.6763 8.54343 60.6442C8.54343 62.3704 6.32606 63.9029 5.15018 64.1288C5.9733 69.6298 2.52966 71.2914 1.70654 71.7754C1.70654 69.4685 1.94172 59.9667 1.90812 58.1276C1.89132 56.4821 1.95852 55.4013 3.41997 54.3527C9.41694 50.0938 14.8596 44.0765 17.1609 41.4792C17.4129 43.8507 17.0601 48.3193 17.0265 48.2709Z" fill="white"/>
<path d="M40.9812 50.9165C39.6205 49.6098 36.2441 49.2872 34.0099 51.949C31.7757 49.2872 28.3993 49.6098 27.0386 50.9165C26.7867 52.2233 23.1414 63.79 22.6543 64.9999C24.5021 65.5162 24.4517 65.2419 25.678 64.9031C25.9132 68.178 27.9961 66.2421 28.4497 65.7904C30.0623 68.5974 31.5742 66.8713 32.3973 65.5968C32.3973 66.6293 32.8676 67.1455 34.0099 67.936C35.169 67.1455 35.6225 66.6293 35.6225 65.5968C36.4457 66.8551 37.9575 68.5813 39.5701 65.7904C40.0237 66.2421 42.1067 68.178 42.3418 64.9031C43.5513 65.2258 43.5177 65.5162 45.3655 64.9999C44.8784 63.79 41.2332 52.2233 40.9812 50.9165Z" fill="url(#paint3_linear)"/>
<path d="M50.9762 35.8491C52.2361 39.3981 63.9445 44.2862 66.2962 45.6735C66.2962 43.3666 66.0611 41.8664 66.0947 40.0273C66.1283 38.3818 66.0779 37.2526 64.5828 36.2524C62.651 34.9457 60.3665 34.0907 58.3171 32.9614C56.5029 31.9612 54.823 30.6384 53.0256 29.5898C51.6817 28.8155 51.161 27.9443 50.9594 26.9119C50.7074 29.2994 50.9258 35.8975 50.9762 35.8491Z" fill="url(#paint4_linear)"/>
<path d="M50.9761 48.2709C50.9761 49.9164 52.1856 51.2069 53.4791 52.2394C53.5295 53.2073 54.067 55.6271 56.15 56.4176C56.15 57.7727 57.3427 59.6763 59.4592 60.6442C59.4592 62.3704 61.6766 63.9029 62.8525 64.1288C62.0294 69.6298 65.473 71.2914 66.2961 71.7754C66.2961 69.4685 66.0609 59.9667 66.0945 58.1276C66.1281 56.4821 66.0442 55.4013 64.5827 54.3527C58.6025 50.0938 53.1431 44.0765 50.8417 41.4792C50.5898 43.8507 50.9257 48.3193 50.9761 48.2709Z" fill="url(#paint5_linear)"/>
<path d="M17.0265 35.8491C15.7667 39.3981 4.0583 44.2862 1.70654 45.6735C1.70654 43.3666 1.94172 41.8664 1.90812 40.0273C1.89132 38.3818 1.92492 37.2526 3.41997 36.2524C5.36856 34.9457 7.63633 34.0907 9.68571 32.9614C11.4999 31.9612 13.1797 30.6384 14.9772 29.5898C16.321 28.8155 16.8418 27.9443 17.0433 26.9119C17.2953 29.2994 17.0601 35.8975 17.0265 35.8491Z" fill="url(#paint6_linear)"/>
<path d="M17.0265 48.2709C17.0265 49.9164 15.8171 51.2069 14.5236 52.2394C14.4732 53.2073 13.9357 55.6271 11.8527 56.4176C11.8527 57.7727 10.66 59.6763 8.54343 60.6442C8.54343 62.3704 6.32606 63.9029 5.15018 64.1288C5.9733 69.6298 2.52966 71.2914 1.70654 71.7754C1.70654 69.4685 1.94172 59.9667 1.90812 58.1276C1.89132 56.4821 1.92492 55.369 3.41997 54.3527C11.7015 48.6903 14.8596 44.0765 17.1609 41.4792C17.4129 43.8507 17.0601 48.3193 17.0265 48.2709Z" fill="url(#paint7_linear)"/>
<path d="M20.0165 58.902C20.0165 58.3696 20.2853 56.9177 19.6638 56.466C19.2774 56.1918 18.2863 56.9984 17.48 57.4662C18.9078 53.2073 22.2339 40.3984 21.7131 36.5751C25.7783 38.6239 27.9621 39.9306 30.465 41.6728C32.968 43.399 33.2367 48.4645 31.6073 47.8515C28.0629 46.5286 23.393 51.1102 21.8139 58.6277C21.4108 57.6759 21.0916 56.9661 20.0165 58.902Z" fill="url(#paint8_linear)"/>
<path d="M47.9689 58.902C47.9689 58.3696 47.7001 56.9177 48.3216 56.466C48.708 56.1918 49.6991 56.9984 50.4886 57.4662C49.0776 53.2073 45.7347 40.3984 46.2555 36.5751C42.1903 38.6239 40.0065 39.9306 37.5036 41.6728C35.0006 43.399 34.7319 48.4645 36.3613 47.8515C39.9057 46.5286 44.5756 51.1102 46.1547 58.6277C46.5746 57.6759 46.9106 56.9661 47.9689 58.902Z" fill="url(#paint9_linear)"/>
<path d="M27.0723 15.1515C19.1435 20.6526 11.7523 12.522 9.23257 14.8289C7.70393 16.2163 3.1852 21.0237 3.1852 23.1047C3.1852 25.2019 3.45397 35.107 2.71484 35.8169C4.86502 35.833 15.7335 29.2672 16.355 28.6864C18.4884 26.6376 19.1939 27.7024 21.9152 27.7024C22.8895 27.041 24.0486 26.5731 25.1405 25.9762C29.1217 23.6048 27.1563 18.9749 27.0723 15.1515Z" fill="url(#paint10_linear)"/>
<path d="M64.6497 22.7014C63.9274 20.701 59.2407 14.6192 57.2081 14.6192C54.6715 14.6192 50.5224 18.6039 45.6341 16.7325C39.7379 14.4902 40.5274 6.02078 33.9089 3.05246C36.0759 3.61709 38.2596 4.7786 37.5877 4.4237C34.396 -1.07737 26.9376 1.18113 25.325 3.58482C25.073 4.53662 26.9208 6.27889 28.4663 7.44041C29.8773 9.53759 30.0453 9.71504 28.8862 13.377C27.7607 16.9422 36.563 15.8614 39.0324 18.6684C41.6865 21.7658 44.7102 24.1695 48.7753 25.089C48.9097 25.1051 49.0441 25.1374 49.1617 25.1696C49.968 27.2668 56.2842 33.0744 65.3888 35.9137C64.0785 34.2843 65.372 24.7018 64.6497 22.7014Z" fill="url(#paint11_linear)"/>
<path d="M12.861 67.4037C13.0961 67.7425 13.3985 67.807 13.8521 67.7909C14.02 67.7909 14.2048 67.7425 14.3728 67.7909C14.5408 67.8393 14.7088 68.3716 14.9439 68.42C15.1623 68.4684 15.7839 68.42 16.0022 68.4362C16.4054 68.4846 16.7246 68.904 17.1277 68.9201C17.4637 68.9363 17.7493 68.6459 17.8333 68.3232C17.934 67.9199 17.7829 66.6294 18.1692 66.3067C18.354 66.4358 18.8411 66.8229 19.0931 66.9197C19.3115 67.0004 19.9162 67.2262 20.101 67.2908C20.2018 67.323 18.9587 65.3549 18.9251 64.9677C18.774 63.6288 20.017 61.8704 20.3698 61.096C20.5378 60.7411 20.9409 59.4021 21.0921 59.015C21.2433 58.6278 21.3777 57.7244 21.0081 57.9825C19.6139 58.9021 19.9834 56.6597 19.5299 56.7565C18.4716 56.9662 18.2196 58.6278 17.9676 59.4344C17.7661 60.0797 16.2542 63.5481 15.9854 63.6288C15.7335 63.4836 15.2631 63.6288 14.8936 64.2257C14.4904 63.7578 14.0368 63.1125 13.3985 63.1609C12.5754 63.2255 12.8946 64.4193 12.9786 64.9032C13.0289 65.242 12.6762 66.468 12.7098 66.7907C12.7266 66.9359 12.777 67.1617 12.8106 67.3069L12.861 67.4037Z" fill="white"/>
<path d="M55.2762 67.3714C55.041 67.7102 54.4531 67.936 54.0163 67.9199C53.8483 67.9199 53.4284 68.1296 53.3108 68.2425C53.1428 68.4039 52.8908 68.3716 52.6557 68.4039C52.4373 68.4523 52.2525 68.4845 52.0341 68.5007C51.631 68.5491 51.295 68.904 50.8918 68.9201C50.5559 68.9362 50.2535 68.6297 50.1695 68.3071C50.0687 67.9038 49.8336 66.5487 49.5816 66.6455C49.3464 66.7423 48.3889 67.1294 47.8681 67.323C47.7674 67.3553 48.9432 65.3226 49.0944 64.9516C49.2624 64.5483 49.3128 64.3063 49.044 63.7094C48.9936 63.6126 48.1369 62.0155 47.7842 61.2573C47.6162 60.9024 47.0954 59.386 46.9274 59.015C46.7763 58.6278 46.6251 57.7244 47.0114 57.9825C48.4057 58.902 48.0361 56.6597 48.4897 56.7565C49.548 56.9662 49.8 58.6278 50.0519 59.4344C50.2535 60.0797 50.6399 60.7895 50.8582 61.4187C51.0934 62.0478 51.7318 63.0157 51.7318 64.0159C51.7318 64.0159 51.9333 63.774 52.1517 63.7417C52.6221 63.7094 52.874 63.661 53.0084 64.2579C53.378 63.6772 53.8819 63.1125 54.5203 63.1771C55.3434 63.2416 55.1082 64.4354 55.0242 64.9193C54.9738 65.2581 55.0074 65.4356 55.1418 65.7421C55.6122 66.952 55.2762 67.3714 55.2762 67.3714Z" fill="white"/>
<path d="M30.7678 3.92358C30.7678 4.55274 30.1631 5.06897 29.4239 5.06897C28.6848 5.06897 28.0801 4.55274 28.0801 3.92358C28.0801 3.29443 28.6848 2.7782 29.4239 2.7782C30.1799 2.7782 30.7678 3.29443 30.7678 3.92358Z" fill="url(#paint12_linear)"/>
<path d="M25.4764 5.05342C25.5268 5.05342 25.5604 5.05342 25.6108 5.06958C25.6108 4.87567 25.4092 4.73022 25.1741 4.73022C24.9389 4.73022 24.7373 4.89183 24.7373 5.06958C24.7373 5.24734 24.8885 5.37663 25.1069 5.40895C25.0901 5.37663 25.0733 5.3443 25.0733 5.31198C25.0733 5.16654 25.2581 5.05342 25.4764 5.05342Z" fill="black"/>
<path fill-rule="evenodd" clip-rule="evenodd" d="M28.3479 4.16552C28.7175 5.43996 30.7669 4.76241 30.1621 3.3589C30.9684 3.06852 31.5732 3.05239 32.2115 2.93947C30.5317 2.68135 28.5495 2.48776 27.3232 3.02013C26.7185 3.27824 26.8865 3.63315 26.9873 3.77834C27.088 3.47183 27.6256 3.4557 28.012 3.56862C27.7264 5.94006 30.8845 5.66582 30.7501 3.72995C30.5317 5.32704 28.4151 5.32704 28.3479 4.16552Z" fill="black"/>
<path fill-rule="evenodd" clip-rule="evenodd" d="M29.9609 3.61763C29.8097 3.47225 29.205 3.34303 28.9194 3.61763C28.9194 3.35918 29.1546 3.14919 29.4402 3.14919C29.7257 3.13304 29.9609 3.34303 29.9609 3.61763Z" fill="white"/>
<path d="M66.6485 46.3996C66.9677 46.5125 67.2364 46.6093 67.4548 46.69C66.5813 45.4155 66.6485 43.3668 66.6485 42.8828V37.9786C66.9677 38.0915 67.2364 38.1883 67.4548 38.269C66.5813 36.9945 66.6485 34.9458 66.6485 34.4618V23.0564C66.6485 19.8945 61.6258 12.2478 57.3759 12.151C54.3522 12.0865 50.8245 16.1518 46.4906 15.1032C45.0963 14.7644 43.9876 13.3287 43.0805 11.5541C41.4679 8.39223 39.9057 4.14947 35.9917 1.69738C31.6409 -1.01282 26.6351 2.02003 26.0639 2.48786C25.5768 2.92343 24.7872 4.23013 24.3673 4.42372C23.0066 5.10127 22.7883 6.24665 22.7883 6.68222C22.7883 7.11779 22.889 8.16638 23.7122 8.76327C23.5946 8.24704 23.561 7.95666 23.6954 7.69855C24.2329 7.77921 25.4256 8.02119 26.1983 7.71468C26.5679 8.08572 27.475 8.7794 27.8781 9.48922C28.4325 10.4894 28.4325 10.6346 28.4325 11.0218C28.4325 12.0381 27.9453 13.49 26.4335 14.4257C24.8544 15.5065 21.1252 16.1195 16.4553 14.5708C13.9356 13.732 12.8941 12.0542 10.6263 12.1188C6.37636 12.2156 1.35368 19.8622 1.35368 23.0241V34.4295C1.35368 34.9135 1.42087 36.9623 0.547363 38.2367C0.765741 38.1561 1.05131 38.0593 1.35368 37.9463V42.8505C1.35368 43.3345 1.42087 45.3833 0.547363 46.6577C0.765741 46.5771 1.05131 46.4803 1.35368 46.3673V52.6589C1.35368 53.1428 1.42087 55.1916 0.547363 56.4661C0.765741 56.3854 1.05131 56.3047 1.35368 56.1757V68.8394C1.35368 69.1943 1.38727 70.4527 1.03451 71.5819C0.916924 71.9529 1.1857 72.4208 1.60565 72.2595C3.30228 71.6142 5.78842 70.3397 5.78842 66.7906V64.7903C7.01469 64.274 8.47614 63.3706 8.94649 61.1444C10.3407 60.483 11.8694 59.3376 12.2054 57.0146C13.6164 56.2241 15.0275 54.8529 15.0443 52.191C16.2873 51.2876 17.0097 50.2391 17.1608 49.4163C17.2616 48.8678 17.3288 47.545 17.3624 46.0286C18.2527 45.3994 18.9079 44.6896 19.2774 44.0443C19.1262 47.3353 18.4543 51.7716 16.8417 57.9018C17.1272 57.9018 17.5136 57.8373 17.9 57.7566C17.6816 58.9988 16.5897 61.9349 15.8506 63.2738C15.7498 63.2577 15.649 63.2738 15.5314 63.29C15.2962 63.3222 15.1115 63.5481 14.9939 63.8385C14.6579 63.3545 14.2547 62.564 13.2804 62.8705C12.3061 63.177 12.5245 64.3063 12.6925 64.8225C13.0285 65.8227 12.2725 66.1454 12.4069 66.9842C12.4909 67.565 12.8605 67.9683 13.2972 68.1458C13.4148 68.4039 13.6332 68.5975 13.9188 68.7104C14.2211 68.8233 14.1875 68.5652 14.1707 68.2103C14.2379 68.1942 14.3051 68.178 14.3555 68.1458C14.4395 68.42 14.6243 68.6136 14.8595 68.7265C14.9603 68.9362 15.1618 69.1298 15.5482 69.3718C15.9346 69.5492 15.6658 69.1459 15.5986 68.791C15.733 68.7588 15.8842 68.6943 16.0186 68.6136C16.0689 68.7265 16.1361 68.8233 16.2369 68.8878C16.2705 68.9201 16.3041 68.9362 16.3377 68.9685C16.4385 69.3395 16.7073 69.5654 17.1104 69.7751C17.396 69.8558 17.2784 69.5654 17.2448 69.275C17.6312 69.275 17.9672 69.0814 18.1183 68.4684C18.3367 67.6134 17.8664 67.6941 18.3871 66.6939C18.5047 66.71 19.2774 67.0165 19.4118 67.0488C18.6727 66.7745 18.2359 65.0484 18.1183 65.5485C17.48 66.6455 18.0511 68.6942 17.3288 68.7426C15.2458 68.8717 16.7913 66.3712 16.8753 65.7421C16.9761 64.9516 16.8921 63.7739 17.6984 64.0159C18.4207 64.2256 19.3446 66.5003 19.7982 67.1617C19.8654 67.2585 20.89 67.8392 20.9404 67.5811C19.9829 66.6616 19.4286 65.2258 19.311 64.758C19.1598 64.1127 19.227 63.7901 19.4286 63.29C19.6302 62.8221 20.7893 60.8379 21.2764 59.87C21.4108 60.2571 21.5452 60.612 21.6124 60.9024C21.7636 58.8375 24.1825 54.8851 26.2823 52.5621C25.5096 54.9174 23.7793 60.6766 23.309 62.2736C22.9226 63.5804 21.9987 64.9516 21.7636 65.1613C22.5699 65.4517 24.0313 65.6775 25.0728 65.2904C24.9216 65.8066 24.9384 66.2744 25.392 66.7261C25.9631 67.2746 27.5422 67.6618 28.3149 66.3873C28.9364 68.5168 31.3218 68.4039 32.2625 66.9197C32.6656 68.1458 33.5055 68.3071 33.9927 68.7749C34.4798 68.3071 35.3198 68.1619 35.7229 66.9197C36.6636 68.4039 39.049 68.5007 39.6705 66.3873C40.4432 67.6618 42.0391 67.2746 42.5934 66.7261C43.0469 66.2906 43.0637 65.8066 42.9126 65.2904C43.9541 65.6775 45.4155 65.4517 46.2218 65.1613C46.0034 64.9516 45.0627 63.5804 44.6764 62.2736C44.206 60.6766 42.4758 54.9174 41.7031 52.5621C43.8029 54.8851 46.2218 58.8214 46.373 60.9024C46.4402 60.612 46.5746 60.2571 46.709 59.87C47.1961 60.8379 48.372 62.8221 48.5568 63.29C48.7584 63.7739 48.8255 64.0966 48.6744 64.758C48.5736 65.2258 48.12 66.6616 47.1625 67.5811C47.2129 67.8392 48.0864 67.3714 48.1368 67.2908C48.5904 66.5809 49.5647 64.2418 50.287 64.0159C51.0933 63.7739 51.0093 64.9355 51.1101 65.7421C51.1773 66.3712 52.7227 68.8717 50.6566 68.7426C49.9342 68.6942 50.4886 66.6455 49.867 65.5485C49.7494 65.0484 49.3295 66.839 48.5904 67.1133C48.7248 67.081 49.4639 66.6939 49.5815 66.6777C50.1022 67.6779 49.6487 67.6134 49.867 68.4684C50.0182 69.0653 50.3542 69.275 50.7405 69.275C50.707 69.5654 50.6062 69.8558 50.8917 69.7751C51.3117 69.5492 51.5805 69.3395 51.6645 68.9524C51.698 68.9362 51.7316 68.904 51.7652 68.8878C51.866 68.8233 51.9332 68.7265 51.9836 68.6136C52.118 68.7104 52.2692 68.7588 52.4036 68.791C52.3364 69.1459 52.0676 69.5492 52.454 69.3718C52.8403 69.1298 53.0419 68.9362 53.1427 68.7265C53.3779 68.6136 53.5627 68.42 53.6466 68.1458C53.7138 68.178 53.781 68.1942 53.8482 68.2103C53.8482 68.5813 53.7978 68.8233 54.1002 68.7104C54.3858 68.5975 54.6041 68.3877 54.7217 68.1458C55.1585 67.9522 55.528 67.5489 55.612 66.9842C55.7464 66.1615 55.0073 65.8227 55.3433 64.8225C55.5113 64.3063 55.7296 63.177 54.7553 62.8705C53.7978 62.564 53.3779 63.3545 53.0419 63.8385C52.9243 63.5642 52.7563 63.3384 52.5044 63.29C52.3868 63.2738 52.286 63.2738 52.1852 63.2738C51.4461 61.9349 50.3542 58.9988 50.1358 57.7566C50.5222 57.8373 50.9085 57.9018 51.1941 57.9018C49.5815 51.7716 48.8927 47.3353 48.7584 44.0443C49.1279 44.6896 49.7662 45.3994 50.6566 46.0286C50.6902 47.545 50.7573 48.8678 50.8581 49.4163C51.0093 50.2391 51.7484 51.2876 52.9747 52.191C52.9915 54.8367 54.4026 56.2241 55.8136 57.0146C56.1496 59.3376 57.6782 60.483 59.0725 61.1444C59.5428 63.3706 61.0043 64.274 62.2306 64.7903V66.7906C62.2306 70.2913 64.6495 71.5819 66.3461 72.2433C66.7829 72.4046 67.1356 72.0981 67.0349 71.7916C66.6149 70.5978 66.6485 69.2266 66.6485 68.8394V56.1918C66.9677 56.3047 67.2364 56.3693 67.4548 56.4661C66.5813 55.1916 66.6485 53.1428 66.6485 52.6589V46.3996V46.3996ZM26.4671 7.16619C26.1815 7.24685 24.6361 7.48883 24.4513 7.31137C24.7872 7.15005 25.0224 7.03713 25.6608 6.64996C26.1311 6.68222 26.5847 6.95647 27.307 7.3759C26.9038 7.23072 26.8534 7.08553 26.4671 7.16619ZM4.64614 58.0793V61.6445C4.64614 62.0962 4.59574 63.4029 4.59574 64.9032V67.2908C4.59574 68.791 3.1007 70.13 1.99201 70.5817C2.21039 70.3236 2.42877 69.5815 2.42877 68.5007V55.724C3.1175 55.4013 3.83982 54.9496 4.44456 54.2882C4.51175 54.256 4.57894 54.2398 4.66294 54.2076C4.66294 56.2241 4.64614 57.7889 4.64614 58.0793ZM4.64614 47.1578C4.64614 47.7386 4.59574 50.7392 4.59574 51.1102C4.59574 52.675 3.1007 53.9495 1.99201 54.4173C2.21039 54.143 2.42877 53.4171 2.42877 52.3362V45.9479C3.01671 45.6737 3.62144 45.3026 4.15899 44.7864C4.32697 44.7219 4.51175 44.6573 4.71333 44.5928C4.67973 45.4155 4.64614 46.5125 4.64614 47.1578ZM2.00881 44.6089C2.22719 44.3347 2.44557 43.6087 2.44557 42.5279V37.5269C3.0335 37.2527 3.63824 36.8816 4.17579 36.3654C4.32697 36.3009 4.51175 36.2525 4.69653 36.1718C4.66294 36.5751 4.64614 37.0268 4.64614 37.5269V40.6082C4.64614 42.8505 3.25188 44.0927 2.00881 44.6089ZM5.73802 35.7524C6.39315 35.4459 7.06509 35.0264 7.65303 34.4295C7.77061 34.3811 7.8882 34.3489 8.02259 34.3005C7.98899 34.6877 7.97219 35.1555 7.97219 35.704V38.8175C7.97219 40.9631 6.67873 42.1891 5.48605 42.7376C5.67083 42.1891 5.77162 41.56 5.77162 40.834V37.7689C5.75482 37.0913 5.72122 36.4138 5.73802 35.7524ZM7.97219 56.2563V59.3699C7.97219 61.6122 6.47715 62.8705 5.55324 63.2577C5.77162 62.9996 5.77162 62.3704 5.77162 61.2735V60.1442V60.1281V58.3051C5.77162 57.9502 5.75482 56.1112 5.75482 53.8043C6.52754 53.4816 7.36745 52.9977 8.02259 52.1588C7.98899 53.7075 7.97219 55.7079 7.97219 56.2563ZM7.97219 45.3349V48.4484C7.97219 50.5617 6.62833 51.9007 5.53644 52.3846C5.68763 51.8684 5.77162 51.3038 5.77162 50.6424V50.5778C5.77162 50.5133 5.77162 50.4326 5.77162 50.3681V49.2389V47.4159C5.77162 46.6577 5.72123 45.222 5.75482 44.1895C6.40995 43.883 7.08188 43.4635 7.65303 42.8828C7.77061 42.8344 7.8882 42.786 8.02259 42.7537C7.98899 43.6087 7.97219 44.7703 7.97219 45.3349ZM8.8289 40.834C8.98009 40.3178 9.08088 39.7209 9.08088 39.0595V34.1553C9.08088 34.0585 9.08088 33.9617 9.08088 33.8488C9.45044 33.6713 9.8368 33.4455 10.1896 33.1712C10.5255 33.0906 10.8447 32.9938 11.1471 32.8808C11.1303 33.2035 11.1471 33.5907 11.1471 34.1714V36.9946C11.1471 39.0433 9.97118 40.2371 8.8289 40.834ZM11.1471 53.0138V55.8369C11.1471 57.7244 10.1392 58.902 9.08088 59.5312V54.6915C9.08088 54.4979 9.08088 52.1749 9.08088 50.8521C9.82 50.481 10.5759 49.9648 11.1639 49.2227C11.1639 50.3359 11.1471 52.191 11.1471 53.0138ZM11.1471 42.7699V45.593C11.1471 47.4966 10.1224 48.6742 9.06408 49.3034C9.08088 49.0937 9.08088 48.9001 9.08088 48.6742V43.7701C9.08088 43.6087 9.08088 42.8989 9.08088 42.2536C9.50083 42.0439 9.92079 41.7858 10.3071 41.4793C10.5591 41.3825 10.8615 41.2857 11.1639 41.1567C11.1639 41.689 11.1471 41.689 11.1471 42.7699ZM12.2725 40.6243C12.6925 40.3823 13.1125 40.0919 13.482 39.7209C13.6332 39.6564 13.7676 39.5757 13.9188 39.5112C13.9188 39.7532 13.9188 40.0435 13.9188 40.3662V43.2054C13.9188 44.8832 13.1293 45.9963 12.2054 46.6738C12.2389 46.3996 12.2557 46.1254 12.2557 45.8188V41.6406C12.2557 41.318 12.2557 40.9631 12.2725 40.6243ZM13.9188 49.1098V51.9491C13.9188 53.5945 13.1461 54.7077 12.2557 55.3852V51.8684C12.2557 51.5135 12.2557 49.4163 12.2893 48.2064C12.8773 47.8676 13.4652 47.4159 13.9524 46.819C13.9188 47.5934 13.9188 48.5936 13.9188 49.1098ZM13.9188 32.7518V35.5911C13.9188 37.4301 12.9613 38.6078 11.9366 39.2369C12.1382 38.6562 12.2557 37.9947 12.2557 37.2204V33.0422C12.2557 32.8163 12.2557 32.5905 12.2557 32.3485C12.8101 32.0258 13.2636 31.6548 13.6332 31.2354C13.7508 31.187 13.8684 31.1224 13.9692 31.0741C13.9356 31.4774 13.9188 32.0258 13.9188 32.7518ZM16.7409 48.2871C16.7409 49.1582 16.0018 50.0455 15.0275 50.7714V48.7549C15.0275 48.2709 14.9939 45.5607 15.0443 44.2702C15.8674 43.6733 16.4553 43.0118 16.8081 42.3988C16.7913 44.5928 16.7409 47.674 16.7409 48.2871ZM15.0107 38.8336C15.817 38.2367 16.4217 37.5914 16.7745 36.9784C16.7577 38.5271 16.7409 39.9306 16.7409 40.3339C16.7409 41.205 16.0018 42.0923 15.0275 42.8183V39.979C15.0275 39.6564 15.0107 39.2369 15.0107 38.8336ZM16.7577 34.8651C16.7577 35.8169 15.8842 36.7526 14.8091 37.5269C14.9603 37.0268 15.0275 36.4622 15.0275 35.8169C15.0275 34.2521 15.0275 34.5425 15.0275 32.3808C15.0275 31.8323 14.9771 31.0418 15.0779 30.4126C15.8674 29.848 16.4385 29.235 16.8249 28.5897C16.8081 30.8159 16.7577 34.2198 16.7577 34.8651ZM14.3555 65.0645C14.4227 65.371 14.7923 67.5005 13.9692 67.7102C13.23 67.8876 12.3733 67.3714 12.9949 65.8389C13.314 65.0645 12.8101 63.4674 13.3308 63.3545C13.986 63.2093 14.5739 64.1288 14.7755 64.8064C14.8427 65 14.8259 65.2904 14.8091 65.3388C14.6075 65.0484 14.3387 64.5644 14.3555 65.0645ZM16.6233 65.7421C16.6065 65.9034 16.5729 66.0486 16.5393 66.1938C16.3881 65.8873 16.0857 65.0322 16.0857 65.5807C16.0857 65.9679 16.1193 68.2103 15.3634 68.2909C14.6075 68.3555 14.4395 67.7102 14.8427 66.9197C15.229 66.1454 14.9435 63.9353 15.481 63.8869C16.0186 63.8546 16.4217 64.3547 16.6401 64.8709C16.6401 65.1129 16.6737 65.3549 16.6233 65.7421ZM20.1677 61.0799C19.9158 61.5638 19.5294 61.6606 19.3278 61.9833C19.059 62.3866 19.1934 63.0641 18.8575 63.3868C18.6391 63.5965 18.5215 63.7739 18.6055 64.3386C18.4039 64.0159 18.1519 63.8223 17.9336 63.6771C17.5136 63.419 16.9425 63.4836 16.7073 63.9675C16.6401 63.8546 16.5561 63.7417 16.4553 63.6287C16.5393 63.4997 16.6065 63.3545 16.6737 63.1932C16.8249 62.8705 16.7745 62.4188 16.8921 62.2414C16.9761 62.1123 17.2784 61.9187 17.4296 61.6606C17.564 61.4025 17.5304 60.8218 17.6648 60.5314C17.7992 60.241 17.984 60.1281 18.1015 59.757C18.1351 59.628 18.2359 58.902 18.3367 58.66C18.5047 58.2406 19.0086 57.6276 19.5294 57.2082C19.5294 58.1922 19.5462 58.4665 19.7142 59.6118C20.2181 59.1279 20.5877 58.7891 20.9236 58.3858C20.9068 59.1279 20.8397 59.2892 20.5541 59.8377C20.3021 60.3378 20.4197 60.5959 20.1677 61.0799ZM23.1914 64.6451C23.5946 64.2418 23.8633 63.3868 24.0985 62.4511C24.2833 61.6768 26.4671 53.8688 27.0046 51.9168C27.3406 51.5942 27.6597 51.336 27.9453 51.1425C28.1301 50.9811 28.4157 50.8843 28.7348 50.8198C28.1973 52.7879 26.1479 61.709 25.7447 63.4997C25.4256 64.6451 24.5017 64.8871 23.1914 64.6451ZM28.2141 64.4838C27.9789 65.6453 27.8613 66.4035 26.4503 66.0808C25.5432 65.8711 26.3327 64.4999 26.5007 63.5481C26.6519 62.7253 28.8692 52.3362 29.1884 50.7714C29.5915 50.7553 30.0283 50.7875 30.4819 50.8682C30.2131 51.9813 28.2309 64.4515 28.2141 64.4838ZM32.1617 62.9028C32.0777 64.0482 31.9937 64.9032 31.9265 65.1936C31.4897 67.4359 28.4997 67.2746 29.0204 64.3708C29.1548 63.5965 30.6834 53.1751 31.0194 50.9811C31.6241 51.1425 32.2289 51.3683 32.7328 51.6748C32.716 52.8363 32.3801 58.9988 32.1617 62.9028ZM33.9927 67.3069C33.4047 66.9681 32.9512 66.3712 32.9512 64.7257C32.9512 63.2093 33.1864 53.5784 33.2368 52.0136C33.6399 52.3524 33.9087 52.7395 33.9927 53.1751C34.0767 52.7395 34.3455 52.3362 34.7486 52.0136C34.799 53.5623 35.0342 63.2093 35.0342 64.7257C35.0342 66.3712 34.5974 66.9681 33.9927 67.3069ZM36.0757 65.1936C36.0253 64.9032 35.9413 64.0482 35.8405 62.9028C35.6221 58.9988 35.2862 52.8363 35.2694 51.6587C35.7733 51.3522 36.378 51.1263 36.9828 50.965C37.3187 53.159 38.8474 63.5804 38.9818 64.3547C39.4857 67.2746 36.5124 67.4198 36.0757 65.1936ZM41.5519 66.0808C40.1408 66.4196 40.0065 65.6614 39.7881 64.4838C39.7881 64.4515 37.7891 51.9813 37.5203 50.8521C37.9739 50.7714 38.4106 50.7392 38.8138 50.7553C39.0994 52.1265 41.3671 62.7576 41.5015 63.532C41.6527 64.4999 42.459 65.8711 41.5519 66.0808ZM43.9037 62.4511C44.1388 63.3868 44.3908 64.2579 44.8108 64.6451C43.5005 64.8871 42.5766 64.6451 42.2574 63.4997C41.8543 61.709 39.8049 52.7879 39.2673 50.8198C39.5865 50.8843 39.8553 50.9811 40.0569 51.1425C40.3424 51.336 40.6616 51.6103 41.0144 51.9329C41.5351 53.8688 43.7189 61.6606 43.9037 62.4511ZM53.2267 64.7903C53.4451 64.1288 54.0162 63.1932 54.6713 63.3384C55.1921 63.4513 54.6881 65.0484 55.0073 65.8227C55.612 67.3553 54.7553 67.8715 54.0162 67.6941C53.1931 67.5005 53.5627 65.3549 53.6298 65.0484C53.6466 64.5483 53.3779 65.0322 53.1931 65.3226C53.1595 65.2097 53.1259 65.1129 53.2267 64.7903ZM52.538 63.8869C53.0755 63.9191 52.7731 66.1454 53.1595 66.9197C53.5627 67.7102 53.3779 68.3555 52.6387 68.2909C51.866 68.2264 51.9164 65.984 51.9164 65.5807C51.9164 65.0161 51.6309 65.8711 51.4629 66.1938C51.4293 66.0486 51.3957 65.9034 51.3789 65.7421C51.3285 65.3549 51.3621 65.1129 51.3957 64.8871C51.5973 64.3547 52.0004 63.8546 52.538 63.8869ZM50.5558 61.6768C50.6902 61.9349 50.9925 62.1285 51.0765 62.2575C51.1941 62.435 51.1437 62.8867 51.2949 63.2093C51.3621 63.3545 51.4461 63.4997 51.5133 63.6449C51.4125 63.7578 51.3285 63.8707 51.2613 63.9837C51.0261 63.4836 50.4718 63.4352 50.0518 63.6933C49.8334 63.8223 49.5815 64.0321 49.3799 64.3547C49.4639 63.7901 49.3463 63.6126 49.1279 63.4029C48.792 63.0803 48.9263 62.4027 48.6576 61.9994C48.456 61.6929 48.0528 61.58 47.8177 61.096C47.5657 60.612 47.7001 60.3539 47.4313 59.87C47.1457 59.3215 47.0785 59.1601 47.0617 58.4181C47.3809 58.8214 47.7673 59.1601 48.2712 59.6441C48.456 58.4987 48.4728 58.2245 48.4728 57.2404C48.9767 57.6598 49.4975 58.2729 49.6655 58.6923C49.7663 58.9343 49.8502 59.6602 49.8838 59.7893C50.0014 60.1603 50.1862 60.2894 50.3206 60.5636C50.455 60.8379 50.4214 61.4025 50.5558 61.6768ZM50.7405 40.463C50.7405 40.5275 50.7574 40.5759 50.7574 40.6404C50.7406 40.592 50.7237 40.5436 50.7405 40.463ZM52.9579 48.7388V50.7714C51.9836 50.0293 51.2277 49.1582 51.2277 48.2871C51.2277 47.674 51.1773 44.6089 51.1773 42.3988C51.5301 43.0118 52.118 43.6733 52.9411 44.2863C52.9915 45.5607 52.9579 48.2548 52.9579 48.7388ZM51.1941 36.9623C51.5469 37.5753 52.1516 38.2367 52.9579 38.8336C52.9579 39.2369 52.9411 39.6564 52.9411 39.979V42.8183C51.9668 42.0923 51.2109 41.205 51.2109 40.3178C51.2445 39.9306 51.2277 38.511 51.1941 36.9623ZM51.2445 34.8651C51.2445 34.2198 51.1941 30.7998 51.1941 28.5897C51.5805 29.235 52.1348 29.848 52.9243 30.4126C53.0083 31.0418 52.9747 31.8323 52.9747 32.3808C52.9747 34.5586 52.9747 34.2521 52.9747 35.8169C52.9747 36.4622 53.0587 37.0268 53.1931 37.5269C52.1012 36.7687 51.2445 35.8169 51.2445 34.8651ZM55.7464 51.8845V55.4013C54.8393 54.7238 54.0834 53.6268 54.0834 51.9652V49.1098C54.0834 48.5774 54.0834 47.5934 54.0498 46.819C54.5202 47.4159 55.1081 47.8676 55.696 48.2064C55.7464 49.4324 55.7464 51.5296 55.7464 51.8845ZM54.0834 43.2054V40.3662C54.0834 40.0435 54.0834 39.7693 54.0666 39.5112C54.201 39.5918 54.3522 39.6564 54.5034 39.7209C54.8897 40.0919 55.2929 40.3823 55.7128 40.6243C55.7464 40.9631 55.7464 41.318 55.7464 41.6245V45.8027C55.7464 46.1092 55.7632 46.3835 55.7968 46.6577C54.8729 45.9963 54.0834 44.8832 54.0834 43.2054ZM54.0834 35.5911V32.7518C54.0834 32.0258 54.0666 31.4774 54.033 31.0902C54.1338 31.1386 54.2514 31.2031 54.369 31.2515C54.7385 31.6548 55.1921 32.042 55.7464 32.3646C55.7464 32.6066 55.7464 32.8325 55.7464 33.0583V37.2365C55.7464 38.0109 55.864 38.6723 56.0656 39.2531C55.0241 38.6078 54.0834 37.4463 54.0834 35.5911ZM58.9213 54.6915V59.5312C57.863 58.902 56.8551 57.7244 56.8551 55.8369V53.0138C56.8551 52.191 56.8383 50.3359 56.8215 49.2227C57.4095 49.9809 58.1822 50.481 58.9045 50.8521C58.9213 52.1749 58.9213 54.4979 58.9213 54.6915ZM56.8551 45.593V42.7699C56.8551 41.689 56.8215 41.689 56.8215 41.1728C57.1407 41.3018 57.4263 41.4148 57.695 41.4954C58.0982 41.8019 58.5181 42.0601 58.9213 42.2698C58.9213 42.8989 58.9213 43.6249 58.9213 43.7862V48.6904C58.9213 48.9162 58.9381 49.1259 58.9381 49.3195C57.8798 48.6742 56.8551 47.4966 56.8551 45.593ZM56.8551 36.9946V34.1714C56.8551 33.5907 56.8551 33.2035 56.8383 32.8808C57.1407 32.9938 57.4598 33.0906 57.7958 33.1712C58.1486 33.4455 58.5349 33.6552 58.9045 33.8488C58.9045 33.9456 58.9045 34.0585 58.9045 34.1553V39.0595C58.9045 39.737 58.9885 40.3178 59.1397 40.834C58.0142 40.2371 56.8551 39.0433 56.8551 36.9946ZM60.03 59.3699V56.2563C60.03 55.7079 60.0132 53.7075 59.9796 52.191C60.6347 53.0138 61.4746 53.4978 62.2474 53.8365C62.2306 56.1434 62.2306 57.9825 62.2306 58.3374V60.1603C62.2306 60.1603 62.2306 60.1603 62.2306 60.1765V61.3057C62.2306 62.3866 62.2306 63.0157 62.4489 63.29C61.525 62.8705 60.03 61.6122 60.03 59.3699ZM60.03 48.4484V45.3349C60.03 44.7864 60.0132 43.6087 59.9796 42.7215C60.114 42.7699 60.2316 42.8183 60.3492 42.8505C60.9371 43.4474 61.609 43.8507 62.2642 44.1572C62.281 45.2058 62.2474 46.6416 62.2474 47.3837V49.2066V50.3358C62.2474 50.4165 62.2474 50.481 62.2474 50.5456V50.6101C62.2474 51.2715 62.3313 51.8361 62.4825 52.3524C61.3738 51.9007 60.03 50.5617 60.03 48.4484ZM60.03 38.8336V35.7201C60.03 35.1716 60.0132 34.7038 59.9796 34.3166C60.0972 34.365 60.2316 34.4134 60.3492 34.4457C60.9371 35.0426 61.609 35.462 62.2642 35.7685C62.281 36.4299 62.2474 37.1075 62.2474 37.8012V40.8663C62.2474 41.5922 62.3481 42.2214 62.5329 42.7699C61.3234 42.2052 60.03 40.9792 60.03 38.8336ZM63.3896 67.3069V64.9193C63.3896 63.419 63.3392 62.0962 63.3392 61.6606V58.0954C63.3392 57.7889 63.3392 56.2402 63.3224 54.2398C63.3896 54.2721 63.4736 54.2882 63.5408 54.3205C64.1288 54.9819 64.8511 55.4336 65.5566 55.7563V68.5329C65.5566 69.6138 65.7918 70.3559 65.9934 70.614C64.8847 70.13 63.3896 68.8072 63.3896 67.3069ZM63.3896 51.1102C63.3896 50.7553 63.3392 47.7547 63.3392 47.1578C63.3392 46.5125 63.3056 45.4155 63.2552 44.5767C63.4568 44.6573 63.6416 44.7219 63.8096 44.7703C64.3471 45.2865 64.9519 45.6414 65.5398 45.9318V52.3201C65.5398 53.401 65.775 54.143 65.9766 54.4012C64.8847 53.9495 63.3896 52.675 63.3896 51.1102ZM63.3392 40.6243V37.543C63.3392 37.0268 63.3224 36.5912 63.2888 36.1879C63.4736 36.2525 63.6416 36.317 63.8096 36.3815C64.3471 36.8978 64.9519 37.2688 65.5398 37.543V42.544C65.5398 43.6249 65.775 44.367 65.9766 44.6251C64.7503 44.0927 63.356 42.8667 63.3392 40.6243ZM63.3392 32.2033V31.0902C63.3392 30.5256 63.3392 29.9771 63.3392 29.7189C63.3392 28.6704 63.1713 27.283 62.1298 26.5893C62.4489 27.767 62.2306 27.9767 62.2306 29.9448V31.3322C62.2306 31.3322 62.2306 31.3806 62.2306 31.5419V32.413C62.2306 33.139 62.3313 33.7681 62.5161 34.3166C61.3067 33.752 60.03 32.5421 60.03 30.3965C60.03 29.6706 59.8452 26.7022 58.9213 25.4762V30.6223C58.9213 31.2999 59.0053 31.8968 59.1733 32.413C56.3512 31.0418 56.6367 26.3635 55.7128 24.5405C55.7128 26.1053 55.7464 27.2185 55.7464 28.7833C55.7464 29.5576 55.864 30.219 56.0656 30.7998C53.5963 29.2834 53.3107 26.3151 53.1091 24.0888C52.8739 24.9116 52.4708 27.0733 53.1427 29.1221C51.4797 27.9121 50.5558 25.3149 50.6734 23.4435C50.4214 24.4599 50.1694 25.9924 50.6902 27.525C50.6062 29.2672 50.623 43.0441 50.623 44.5444C49.6823 43.7862 48.708 42.4472 48.8256 40.3823C48.8591 40.0435 48.8927 39.7209 48.9431 39.4144C49.5983 35.1232 49.7494 28.9285 47.8848 23.9598C49.3799 31.7032 47.5153 39.6564 47.2465 41.2534C46.7762 44.1088 47.7841 50.0455 49.9006 56.6113C49.4975 56.2241 48.0864 55.6595 47.5321 55.1271C47.5321 55.724 47.7673 56.3531 47.7673 57.6598C47.0449 56.4983 46.7762 56.4499 46.0034 55.1594C46.2386 56.6758 46.1714 56.8048 46.1714 58.1115C45.4323 56.7564 45.0291 54.9658 43.2989 52.3846C39.4857 46.6577 33.9927 50.2068 33.9927 51.207C33.9927 50.2068 28.4997 46.6577 24.6865 52.3846C22.973 54.9496 22.5699 56.7564 21.814 58.1115C21.814 56.8048 21.7468 56.6758 21.9819 55.1594C21.2092 56.4499 20.9404 56.4983 20.2181 57.6598C20.2181 56.3693 20.4365 55.724 20.4365 55.1271C19.8822 55.6595 18.4711 56.2241 18.0679 56.6113C20.1677 50.0455 21.1756 44.1088 20.7221 41.2534C20.4533 39.6564 18.6055 31.6871 20.1005 23.9598C18.2527 28.9123 18.3871 35.1071 19.0422 39.4144C19.0926 39.7209 19.1262 40.0435 19.1598 40.3823C19.2606 42.4472 18.2863 43.8023 17.3456 44.5444C17.3456 43.0441 17.3624 29.2834 17.2784 27.5088C17.7992 25.9763 17.5472 24.4437 17.2952 23.4274C17.4128 25.2826 16.4889 27.8799 14.8259 29.1059C15.4978 27.0571 15.1114 24.8954 14.8595 24.0727C14.6579 26.2989 14.3891 29.2672 11.903 30.7837C12.1046 30.2029 12.2222 29.5415 12.2222 28.7671C12.2222 27.2023 12.2557 26.0892 12.2557 24.5244C11.3318 26.3473 11.6174 31.0257 8.7953 32.3969C8.94649 31.8807 9.04728 31.2838 9.04728 30.6062V25.4601C8.12337 26.6861 7.9386 29.6544 7.9386 30.3804C7.9386 32.5259 6.64513 33.752 5.45245 34.3005C5.63723 33.752 5.73802 33.1228 5.73802 32.3969V31.5257C5.73802 31.3644 5.73802 31.316 5.73802 31.316V29.9287C5.73802 27.9444 5.51965 27.7347 5.83881 26.5732C4.79732 27.2507 4.61254 28.6381 4.62934 29.7028C4.62934 29.9609 4.62934 30.5094 4.62934 31.0741V32.1872C4.62934 34.4295 3.21829 35.6556 1.97521 36.1879C2.19359 35.9137 2.41197 35.1877 2.41197 34.1069V23.2983C2.41197 20.2655 6.10759 16.781 7.46824 15.2323C11.2479 10.9734 12.8941 14.4418 16.7073 15.6678C23.0402 17.7328 26.4167 15.4259 26.4167 15.4259C29.7931 13.3771 29.8099 11.4573 29.8099 10.2474C29.8099 9.42469 29.4908 8.3761 28.8692 7.69855C27.7101 6.58543 25.6608 6.23052 25.2912 6.29505C24.5185 6.66609 23.8297 6.68222 23.6954 6.77902C23.3426 6.10146 23.4266 5.069 25.0224 4.214C25.476 3.97202 25.308 3.43966 26.6686 2.66531C30.6498 0.439076 34.547 1.24568 36.8148 3.68164C36.0085 3.40739 35.2358 3.14928 33.8919 3.02022C35.7901 3.64938 38.0411 5.1658 39.5025 7.66628C40.0905 8.66648 41.4343 11.4089 41.9215 12.2478C42.9294 14.0224 44.7772 17.7489 51.2277 15.6517C55.0409 14.4095 56.6871 10.9572 60.4667 15.2161C61.8274 16.7487 65.523 20.2494 65.523 23.2822V34.0908C65.523 35.1716 65.7582 35.8976 65.9598 36.1718C64.7503 35.6717 63.3392 34.4457 63.3392 32.2033Z" fill="black"/>
<path d="M25.6606 6.65002C25.0223 7.03698 24.7871 7.13372 24.4512 7.31108C24.6528 7.48844 26.1814 7.24659 26.467 7.16597C26.8533 7.08535 26.9037 7.23046 27.3069 7.37557C26.5678 6.97249 26.1142 6.68227 25.6606 6.65002Z" fill="white"/>
<path d="M17.0266 91.9566C17.0266 91.9566 17.1274 92.2793 16.7242 92.4729C16.5898 92.5374 16.2707 92.6342 15.9515 92.6342C14.8596 92.6342 14.2549 92.005 14.2549 90.9565C14.2549 90.0047 14.8596 89.1658 15.9011 89.1658C16.8082 89.1658 17.2282 89.7143 17.161 90.9242H14.9436C14.9436 91.6824 15.4476 92.118 16.1363 92.118C16.825 92.1341 17.0266 91.9566 17.0266 91.9566ZM15.8171 89.5691C15.414 89.5691 15.0276 89.9079 14.9772 90.537C15.5484 90.5531 16.2539 90.537 16.4051 90.537C16.5059 90.537 16.573 90.4725 16.573 90.3757C16.5562 89.924 16.3211 89.5691 15.8171 89.5691Z" fill="black"/>
<path d="M57.5104 91.7793V89.9564C57.5104 89.4724 56.8553 89.2466 56.8553 89.2466C56.7545 89.2304 56.5697 89.1498 56.2505 89.1498C55.1251 89.1498 54.2852 89.908 54.2852 91.005C54.2852 92.0697 54.9739 92.6505 55.8138 92.6505C56.1498 92.6505 56.6033 92.4569 56.9225 92.2149C56.9729 92.4408 57.1241 92.6505 57.4936 92.6505C57.6616 92.6505 57.8296 92.4569 57.8632 92.2794C57.8632 92.2794 57.5104 92.1343 57.5104 91.7793ZM56.8553 91.8761C56.6705 92.0213 56.3513 92.1181 56.0994 92.1181C55.4778 92.1181 54.9907 91.6664 54.9907 90.9082C54.9907 89.9564 55.6458 89.5692 56.2337 89.5692C56.5025 89.5692 56.7377 89.6176 56.8553 89.6983V91.8761V91.8761Z" fill="black"/>
<path d="M34.1605 91.7793V89.9564C34.1605 89.4724 33.4886 89.2466 33.4886 89.2466C33.3878 89.2304 33.203 89.1498 32.8838 89.1498C31.7584 89.1498 30.9185 89.908 30.9185 91.005C30.9185 92.0697 31.6072 92.6505 32.4471 92.6505C32.7831 92.6505 33.2366 92.4569 33.5558 92.2149C33.6062 92.4408 33.7574 92.6505 34.1269 92.6505C34.2949 92.6505 34.4629 92.4569 34.4965 92.2794C34.4965 92.2794 34.1605 92.1343 34.1605 91.7793ZM33.5054 91.8761C33.3206 92.0213 33.0014 92.1181 32.7495 92.1181C32.1279 92.1181 31.6408 91.6664 31.6408 90.9082C31.6408 89.9564 32.2959 89.5692 32.8838 89.5692C33.1526 89.5692 33.3878 89.6176 33.5054 89.6983V91.8761V91.8761Z" fill="black"/>
<path d="M51.2782 88.3591C51.2782 88.1656 51.1102 88.0044 50.9086 88.0044C50.707 88.0044 50.5391 88.1656 50.5391 88.3591C50.5391 88.5526 50.707 88.7138 50.9086 88.7138C51.1102 88.7138 51.2782 88.5526 51.2782 88.3591Z" fill="black"/>
<path d="M63.49 91.9566C63.49 91.9566 63.5908 92.2793 63.1876 92.4729C63.0532 92.5374 62.7341 92.6342 62.4149 92.6342C61.323 92.6342 60.7183 92.005 60.7183 90.9565C60.7183 90.0047 61.323 89.1658 62.3645 89.1658C63.2716 89.1658 63.6916 89.7143 63.6244 90.9242H61.407C61.4238 91.6824 61.9109 92.118 62.5997 92.118C63.2716 92.1341 63.49 91.9566 63.49 91.9566ZM62.2637 89.5691C61.8773 89.5691 61.4742 89.9079 61.4238 90.537C61.9949 90.5531 62.7005 90.537 62.8516 90.537C62.9524 90.537 63.0196 90.4725 63.0196 90.3757C63.0028 89.924 62.7677 89.5691 62.2637 89.5691Z" fill="black"/>
<path d="M43.652 92.0697H41.5018V90.1661H42.9465C43.2152 90.1661 43.2656 90.1177 43.3496 89.6983H41.5186V87.827H43.0977C43.4 87.827 43.4 87.5688 43.4336 87.3591H40.8467V92.5698H43.4168C43.568 92.5698 43.652 92.3278 43.6688 92.0859L43.652 92.0697Z" fill="black"/>
<path d="M24.418 91.0701H26.3162C26.5177 91.0701 26.4002 90.8924 26.2826 90.6017H24.418V91.0701V91.0701Z" fill="black"/>
<path d="M4.83156 87.4074C4.74756 87.4235 4.68037 87.4558 4.68037 87.5848V90.2467C4.68037 91.9244 3.99164 92.1664 3.28611 92.1664C2.68137 92.1664 1.90865 91.9244 1.90865 90.3434V88.1979C1.90865 87.8268 1.94225 87.4719 1.94225 87.3751C1.94225 87.3751 1.33751 87.3751 1.27032 87.4396C1.23672 87.4719 1.21992 87.4719 1.20312 87.601V88.698C1.20312 88.7464 1.20312 88.7786 1.20312 88.8109V90.3434C1.20312 92.1019 2.00944 92.6504 3.18532 92.6504C4.07563 92.6504 5.26831 92.3922 5.26831 90.2144V89.1497C5.26831 88.5205 5.26831 87.6655 5.28511 87.3751C5.13392 87.3751 5.06673 87.3751 4.83156 87.4074Z" fill="black"/>
<path d="M65.5733 89.1659C65.8589 89.182 66.0773 89.2627 66.1445 89.5369C66.1781 89.666 66.1613 89.8596 66.0605 89.8112C65.8925 89.7144 65.6909 89.6337 65.5061 89.6176C65.2038 89.5853 64.9518 89.7466 64.935 90.0048C64.9182 90.2306 65.0694 90.3597 65.2374 90.4726C65.4389 90.6017 65.6909 90.7307 65.9093 90.8759C66.2453 91.0856 66.3797 91.376 66.3461 91.6825C66.2789 92.3923 65.5901 92.6988 64.9686 92.6182C64.1455 92.5053 64.1119 91.8438 64.2127 91.8116C64.431 91.989 64.767 92.1503 65.0526 92.1826C65.4389 92.2149 65.6741 92.0374 65.6909 91.7793C65.7077 91.5857 65.6069 91.4405 65.3382 91.2953C65.1366 91.1663 64.9518 91.0695 64.767 90.9566C64.4478 90.763 64.2463 90.4726 64.2799 90.0854C64.3471 89.4401 64.9518 89.1013 65.5733 89.1659Z" fill="black"/>
<path d="M36.8318 89.1497C36.479 89.1497 36.0591 89.3271 35.7735 89.4884V87.3751C35.5887 87.4235 35.1016 87.3913 35.1016 87.6494V92.2309C35.1016 92.36 35.1352 92.4084 35.2359 92.4568C35.4207 92.5536 35.7903 92.6342 36.1934 92.6342C37.3525 92.6342 38.2932 91.9244 38.2932 90.7468C38.31 89.6498 37.5541 89.1497 36.8318 89.1497ZM36.2606 92.2148C36.1095 92.2148 35.9079 92.1987 35.7567 92.1341V89.8595C35.9583 89.7466 36.2774 89.6498 36.479 89.6498C37.1341 89.6498 37.5709 90.0853 37.5709 90.8274C37.5877 91.7631 36.9662 92.2148 36.2606 92.2148Z" fill="black"/>
<path d="M20.9745 91.7954V87.3751C20.7897 87.4235 20.3025 87.3913 20.3025 87.6494C20.3025 87.6494 20.3025 88.0204 20.3025 88.0527V89.2303C20.2018 89.2142 20.017 89.1335 19.6978 89.1335C18.5723 89.1335 17.7324 89.8917 17.7324 90.9887C17.7324 92.0535 18.4211 92.6342 19.2611 92.6342C19.597 92.6342 20.0506 92.4406 20.3697 92.1987C20.4201 92.4245 20.5713 92.6342 20.9409 92.6342C21.1089 92.6342 21.2768 92.4406 21.3104 92.2632C21.3104 92.2793 20.9913 92.1341 20.9745 91.7954ZM18.4379 90.9081C18.4379 89.9563 19.0931 89.5691 19.681 89.5691C19.9498 89.5691 20.185 89.6175 20.3025 89.6982V91.876C20.1178 92.0212 19.7986 92.118 19.5466 92.118C18.9251 92.118 18.4379 91.6663 18.4379 90.9081Z" fill="black"/>
<path d="M51.2276 92.5859V89.1498C51.0596 89.1982 50.5557 89.1659 50.5557 89.424C50.5557 89.424 50.5557 89.7951 50.5557 89.8273V92.5859H51.2276V92.5859Z" fill="black"/>
<path d="M48.3216 89.1498C47.8849 89.1498 47.4649 89.4079 47.1457 89.7144C47.1457 89.6821 47.1289 89.6499 47.1121 89.6176C46.9946 89.3111 46.6586 89.1659 46.121 89.1659C45.7011 89.1659 45.2811 89.424 44.962 89.6983V89.182C44.794 89.2304 44.29 89.1982 44.29 89.4563C44.29 89.4563 44.29 89.9241 44.29 89.9564V92.6182H44.962V92.5859V92.6182V90.1338C45.1635 89.9241 45.4659 89.6821 45.8355 89.6821C46.205 89.6821 46.4738 89.7789 46.5074 90.279V91.2147C46.5074 91.8923 46.5074 92.3439 46.4906 92.6021H47.1793V90.1177C47.3641 89.908 47.6665 89.666 48.0696 89.666C48.5232 89.666 48.8088 89.9564 48.8088 90.5371V92.6021H49.4639V90.5371C49.4639 89.7951 49.2287 89.1498 48.3216 89.1498Z" fill="black"/>
<path d="M8.98011 89.6015C8.86252 89.295 8.52656 89.1498 7.98901 89.1498C7.56906 89.1498 7.1491 89.4079 6.84673 89.6821V89.1659C6.66195 89.2143 6.1748 89.182 6.1748 89.4402C6.1748 89.4402 6.1748 89.908 6.1748 89.9403V92.6021H6.84673V92.5698V92.6021V90.1177C7.04831 89.908 7.36748 89.666 7.72024 89.666C8.0898 89.666 8.35857 89.7628 8.39217 90.2629V91.1986C8.39217 91.8761 8.39217 92.3278 8.37537 92.5859H9.0641V90.1016C9.0473 89.9241 9.0473 89.7951 8.98011 89.6015Z" fill="black"/>
<path d="M10.912 88.3591C10.912 88.1656 10.744 88.0044 10.5424 88.0044C10.3408 88.0044 10.1729 88.1656 10.1729 88.3591C10.1729 88.5526 10.3408 88.7138 10.5424 88.7138C10.744 88.7138 10.912 88.5526 10.912 88.3591Z" fill="black"/>
<path d="M10.8614 92.5876V89.1515C10.6766 89.1999 10.1895 89.1676 10.1895 89.4257C10.1895 89.4257 10.1895 89.7968 10.1895 89.829V92.5876H10.8614V92.5876Z" fill="black"/>
<path d="M54.1676 89.2626C54.1172 89.2142 53.9661 89.1335 53.8149 89.1335C53.4789 89.1335 53.1597 89.3594 52.9078 89.795V89.1497C52.7398 89.1981 52.2358 89.1658 52.2358 89.4239C52.2358 89.4239 52.2358 89.8918 52.2358 89.924V92.5858H52.891V90.5693C52.9078 90.4564 52.9246 90.3757 52.975 90.2628C53.1429 89.8918 53.2941 89.7466 53.7645 89.7466C53.9157 89.7466 54.2012 89.3271 54.1676 89.2626Z" fill="black"/>
<path d="M30.7672 89.2626C30.7169 89.2142 30.5657 89.1335 30.4145 89.1335C30.0785 89.1335 29.7594 89.3594 29.5074 89.795V89.1335C29.3394 89.1819 28.8354 89.1497 28.8354 89.4078C28.8354 89.4078 28.8354 89.8756 28.8354 89.924V92.5858H29.4906V90.5693C29.5074 90.4564 29.5242 90.3757 29.5746 90.2628C29.7426 89.8918 29.8937 89.7466 30.3641 89.7466C30.4985 89.7466 30.784 89.3271 30.7672 89.2626Z" fill="black"/>
<path d="M59.7279 92.23C59.4592 92.23 59.2072 92.0365 59.1568 91.5849C59.1232 91.2623 59.1568 89.6657 59.1568 89.6657C59.1568 89.6657 59.3584 89.6657 59.6439 89.6657C59.7951 89.6657 60.3327 89.6334 60.4166 89.2625H59.1736H59.1568V88.7948C58.972 88.8432 58.4849 88.8109 58.4849 89.069C58.4849 89.069 58.4849 89.4399 58.4849 89.4722V90.4237V91.6333C58.4849 92.2139 58.7536 92.6332 59.4592 92.6332C59.7279 92.6332 60.0471 92.5525 60.1983 92.4235C60.3327 92.3106 60.3663 92.1494 60.3159 92.0042C60.3327 92.0042 60.1143 92.23 59.7279 92.23Z" fill="black"/>
<path d="M13.247 92.23C12.9782 92.23 12.7262 92.0365 12.6758 91.5849C12.6422 91.2623 12.6758 89.6657 12.6758 89.6657C12.6758 89.6657 12.8606 89.6657 13.163 89.6657C13.2974 89.6657 13.8517 89.6334 13.9357 89.2625H12.6926H12.6758V88.7948C12.4911 88.8432 12.0039 88.8109 12.0039 89.069C12.0039 89.069 12.0039 89.4399 12.0039 89.4722V90.4237V91.6333C12.0039 92.2139 12.2727 92.6332 12.9782 92.6332C13.247 92.6332 13.5661 92.5525 13.7173 92.4235C13.8517 92.3106 13.8853 92.1494 13.8517 92.0042C13.8517 92.0042 13.6333 92.23 13.247 92.23Z" fill="black"/>
<path d="M28.1969 92.4729C28.0625 92.1987 27.8609 91.7308 27.5417 91.021C27.2226 90.3273 25.9459 87.3751 25.9459 87.3751H25.8115C25.8115 87.3751 23.9805 91.5211 23.527 92.4568L23.4766 92.5697C23.7621 92.5697 23.8797 92.5858 23.9973 92.5858C24.0981 92.5858 24.1317 92.5536 24.1653 92.489C24.2997 92.2309 24.5517 91.6663 24.8204 91.0533H25.3244V90.5854H25.0052C25.3076 89.8756 25.5596 89.2626 25.8283 88.6496C25.9459 88.9077 27.2058 91.9567 27.3738 92.3438C27.4578 92.5213 27.5082 92.5697 27.6089 92.5697C27.7433 92.5697 28.0289 92.5536 28.2641 92.5697L28.1969 92.4729Z" fill="black"/>
<path d="M46.3731 31.9613C46.3731 38.511 40.8465 43.8184 34.0264 43.8184C27.2063 43.8184 21.6797 38.511 21.6797 31.9613C21.6797 25.4116 27.2063 20.1042 34.0264 20.1042C40.8465 20.088 46.3731 25.4116 46.3731 31.9613Z" fill="#DCDDDE"/>
<path d="M46.44 31.9775C46.44 38.5755 40.8798 43.9152 34.0093 43.9152C27.1388 43.9152 21.5786 38.5594 21.5786 31.9775C21.5786 25.3794 27.1556 20.0397 34.0093 20.0397C40.8798 20.0397 46.44 25.3794 46.44 31.9775Z" stroke="black" stroke-width="0.90229"/>
<path d="M41.4683 42.4627C41.4683 42.4627 40.41 42.1724 40.1244 42.0756L39.7717 40.7854C39.7717 40.7693 39.7549 40.7693 39.7381 40.7693C39.7213 40.7693 39.7213 40.7693 39.7045 40.7854C39.7045 40.7854 39.0997 41.6241 38.915 41.8498C38.6126 41.8498 37.5543 41.7692 37.5375 41.7692C37.5207 41.7692 37.5207 41.7692 37.5039 41.7853C37.5039 41.7853 37.5039 41.8015 37.5039 41.8176L38.3438 42.8981C38.243 43.1723 37.8063 44.1722 37.8063 44.1722C37.8063 44.1884 37.8063 44.1884 37.8063 44.2045C37.8231 44.2206 37.8231 44.2206 37.8399 44.2045L39.1333 43.6884L40.158 44.4625H40.1748C40.1748 44.4625 40.1748 44.4625 40.1916 44.4625C40.2084 44.4625 40.2084 44.4464 40.2084 44.4303C40.2084 44.4303 40.2252 43.3336 40.2252 43.1723C40.494 43.0272 41.4347 42.5111 41.4347 42.5111C41.4515 42.5111 41.4515 42.495 41.4515 42.4788C41.4851 42.4627 41.4851 42.4627 41.4683 42.4627Z" fill="black"/>
<path d="M40.3932 42.6246C40.3932 42.5923 40.3932 42.5923 40.3764 42.5762L40.2252 42.5278L39.7717 42.3826L39.7045 42.1245L39.6037 41.7534C39.6037 41.7373 39.5869 41.7373 39.5869 41.7373C39.5701 41.7373 39.5701 41.7373 39.5533 41.7534L39.1502 42.2697L38.495 42.2535C38.495 42.2535 38.495 42.2535 38.4782 42.2535C38.4782 42.2535 38.4614 42.2535 38.4614 42.2697V42.2858V42.3019L38.8814 42.8343L38.747 43.1731L38.6462 43.4151V43.4312V43.4473C38.6462 43.4473 38.663 43.4473 38.6798 43.4473L38.915 43.3505L39.2509 43.2215L39.8053 43.6409H39.8221H39.8389C39.8557 43.6409 39.8557 43.6248 39.8557 43.6087V42.9311L40.3932 42.6246C40.3932 42.6246 40.3932 42.6407 40.3932 42.6246Z" fill="white"/>
<path d="M30.3145 41.7693C30.3145 41.7532 30.2977 41.7532 30.2809 41.7532C30.2809 41.7532 29.2058 41.8338 28.9034 41.8338C28.7187 41.6081 28.1139 40.7694 28.1139 40.7694C28.1139 40.7533 28.0971 40.7533 28.0803 40.7533C28.0635 40.7533 28.0635 40.7694 28.0635 40.7694L27.7108 42.0596C27.4252 42.1564 26.3669 42.4467 26.3669 42.4467C26.3501 42.4467 26.3501 42.4628 26.3501 42.4789C26.3501 42.4951 26.3501 42.4951 26.3669 42.5112C26.3669 42.5112 27.3076 43.0273 27.5764 43.1724C27.5764 43.3337 27.5932 44.4304 27.5932 44.4304C27.5932 44.4465 27.61 44.4465 27.61 44.4626H27.6268C27.6268 44.4626 27.6436 44.4626 27.6436 44.4465L28.6683 43.6724L29.9617 44.1885C29.9785 44.1885 29.9953 44.1885 29.9953 44.1885C30.0121 44.1723 30.0121 44.1723 29.9953 44.1562C29.9953 44.1562 29.5754 43.1563 29.4746 42.8821L30.3145 41.8016C30.3145 41.8016 30.3313 41.7855 30.3145 41.7693Z" fill="black"/>
<path d="M29.1717 42.5923L29.4069 42.2858V42.2697V42.2536C29.4069 42.2374 29.3901 42.2374 29.3733 42.2374L28.7182 42.2536L28.5166 41.9954L28.315 41.7373C28.315 41.7212 28.2982 41.7212 28.2814 41.7212C28.2646 41.7212 28.2646 41.7373 28.2646 41.7373L28.0966 42.3826L27.7943 42.4794L27.4919 42.5762C27.4751 42.5762 27.4751 42.5923 27.4751 42.6085C27.4751 42.6246 27.4751 42.6246 27.4919 42.6407L28.0294 42.915V43.5925C28.0294 43.6087 28.0294 43.6087 28.0462 43.6248C28.0462 43.6248 28.0462 43.6248 28.063 43.6248H28.0798L28.4158 43.3667L28.6174 43.2054L29.0373 43.3667L29.1885 43.4312C29.1885 43.4312 29.2053 43.4312 29.2221 43.4312C29.2389 43.4151 29.2389 43.4151 29.2221 43.399L29.0877 43.0602L28.9869 42.8182L29.1717 42.5923Z" fill="white"/>
<path d="M26.2488 24.5709L24.989 23.9419L24.8882 22.5872C24.8882 22.5711 24.8714 22.5711 24.8714 22.5549C24.8546 22.5549 24.8546 22.5549 24.8378 22.5711C24.8378 22.5711 24.1155 23.3291 23.9139 23.5549L22.6372 23.2807C22.6204 23.2807 22.6204 23.2807 22.6036 23.2968C22.6036 23.3129 22.5868 23.3129 22.6036 23.3291C22.6036 23.3291 23.0236 24.2161 23.158 24.4741C22.9732 24.6999 22.3853 25.5708 22.3853 25.5708C22.3853 25.5869 22.3853 25.5869 22.3853 25.6031C22.3853 25.6192 22.4021 25.6192 22.4188 25.6192C22.4188 25.6192 23.4939 25.4418 23.7963 25.4095L24.6866 26.4256L24.7034 26.4417C24.7202 26.4417 24.7202 26.4256 24.7202 26.4256C24.7202 26.4256 24.905 25.4257 24.9554 25.1515C25.241 25.0386 26.232 24.6677 26.232 24.6515C26.2488 24.6515 26.2488 24.6354 26.2488 24.6193C26.2656 24.587 26.2656 24.587 26.2488 24.5709Z" fill="black"/>
<path d="M35.9414 19.3297C35.9414 19.3135 35.9246 19.3135 35.9078 19.3135C35.9078 19.3135 34.816 19.249 34.5304 19.2329C34.396 18.9748 33.9425 18.1036 33.9425 18.1036V18.0875C33.9425 18.0875 33.9257 18.0714 33.9089 18.0875C33.8921 18.0875 33.8921 18.0875 33.8921 18.1036C33.8921 18.1036 33.4385 18.9586 33.3041 19.2329C33.0017 19.249 31.9267 19.3135 31.9267 19.3135C31.9099 19.3135 31.9099 19.3297 31.8931 19.3297C31.8931 19.3458 31.8931 19.3458 31.9099 19.3619C31.9099 19.3619 32.733 20.0718 32.9514 20.2653L32.6826 21.5721C32.6826 21.5882 32.6826 21.5882 32.6994 21.6043H32.7162H32.733C32.733 21.6043 33.6569 21.0881 33.9257 20.959C34.1944 21.0881 35.1183 21.5882 35.1183 21.5882C35.1351 21.5882 35.1351 21.5882 35.1519 21.5882C35.1687 21.5882 35.1687 21.5721 35.1687 21.5559L34.8999 20.2492C35.1183 20.0395 35.9414 19.3297 35.9414 19.3297C35.9414 19.3458 35.9414 19.3297 35.9414 19.3297Z" fill="black"/>
<path d="M34.9002 19.6697C34.9002 19.6536 34.8834 19.6536 34.8666 19.6536L34.245 19.6213L33.9427 19.0083C33.9427 18.9922 33.9259 18.9922 33.9091 18.9922C33.8923 18.9922 33.8923 18.9922 33.8755 19.0083L33.5731 19.6213L32.9516 19.6536C32.9348 19.6536 32.9348 19.6536 32.918 19.6697C32.918 19.6859 32.918 19.702 32.918 19.702L33.3883 20.1376L33.2539 20.7829C33.2539 20.799 33.2539 20.799 33.2707 20.8151C33.2875 20.8151 33.2875 20.8151 33.3043 20.8151L33.8923 20.5248L34.4802 20.8151H34.497H34.5138C34.5306 20.8151 34.5306 20.799 34.5306 20.7829L34.3962 20.1376L34.8666 19.702C34.9002 19.6859 34.9002 19.6697 34.9002 19.6697Z" fill="white"/>
<path d="M45.4497 25.5707C45.4497 25.5707 44.845 24.7159 44.677 24.474C44.8114 24.216 45.2314 23.329 45.2314 23.329C45.2314 23.3128 45.2314 23.3128 45.2314 23.2967C45.2314 23.2806 45.2146 23.2806 45.1978 23.2806L43.9211 23.5547C43.7195 23.329 42.9972 22.5548 42.9972 22.5548C42.9972 22.5387 42.9804 22.5387 42.9636 22.5387C42.9468 22.5387 42.9468 22.5548 42.9468 22.571L42.846 23.9257L41.5861 24.5547C41.5693 24.5547 41.5693 24.5708 41.5693 24.5869C41.5693 24.603 41.5693 24.603 41.5861 24.6192C41.5861 24.6192 42.5772 24.9901 42.8628 25.1191C42.93 25.3933 43.098 26.3932 43.098 26.3932C43.098 26.4093 43.1148 26.4093 43.1148 26.4093C43.1316 26.4093 43.1316 26.4093 43.1316 26.3932L44.0219 25.3772C44.3243 25.4094 45.3993 25.5868 45.3993 25.5868C45.4161 25.5868 45.4329 25.5868 45.4329 25.5707C45.4665 25.5868 45.4665 25.5868 45.4497 25.5707Z" fill="black"/>
<path d="M44.5422 25.0082L44.1726 24.5242L44.4918 23.9112C44.4918 23.8951 44.4918 23.8951 44.4918 23.8789C44.4918 23.8628 44.475 23.8628 44.4582 23.8628L43.7526 24.008L43.3495 23.5563C43.3495 23.5402 43.3327 23.5402 43.3159 23.5402C43.2991 23.5402 43.2991 23.5563 43.2991 23.5724L43.2487 24.2016L42.6271 24.5081C42.6103 24.5081 42.6104 24.5242 42.6104 24.5404C42.6104 24.5565 42.6103 24.5565 42.6271 24.5726L43.2319 24.8307L43.3663 25.4599C43.3663 25.476 43.3831 25.476 43.3831 25.476C43.3831 25.476 43.3831 25.476 43.3999 25.476C43.3999 25.476 43.4167 25.476 43.4167 25.4599L43.8534 24.9598L44.4918 25.0405C44.5086 25.0405 44.5086 25.0405 44.5254 25.0243C44.559 25.0243 44.559 25.0082 44.5422 25.0082Z" fill="white"/>
<path d="M25.2081 24.5242L24.5866 24.2177L24.5362 23.5885C24.5362 23.5724 24.5194 23.5724 24.5194 23.5563C24.5026 23.5563 24.4858 23.5563 24.4858 23.5724L24.0826 24.0241L23.3771 23.8789C23.3603 23.8789 23.3603 23.8789 23.3435 23.8951C23.3435 23.9112 23.3267 23.9112 23.3435 23.9273L23.6627 24.5403L23.2931 25.0082C23.2931 25.0243 23.2763 25.0243 23.2931 25.0404C23.2931 25.0566 23.3099 25.0566 23.3267 25.0566L23.965 24.9759L24.4018 25.476L24.4186 25.4921C24.4354 25.4921 24.4354 25.476 24.4354 25.476L24.5698 24.8468L25.1745 24.5887C25.1913 24.5887 25.1913 24.5726 25.1913 24.5565C25.2249 24.5403 25.2249 24.5242 25.2081 24.5242Z" fill="white"/>
<path d="M23.729 35.4611C23.729 35.4611 23.0403 34.7031 22.8387 34.4773C22.9227 34.187 23.2083 33.2194 23.2083 33.2194C23.2083 33.2032 23.2083 33.2032 23.1915 33.1871C23.1747 33.171 23.1747 33.171 23.1579 33.1871L21.8812 33.7193C21.6292 33.558 20.7389 32.9613 20.7389 32.9613C20.7221 32.9452 20.7221 32.9452 20.7053 32.9613C20.6885 32.9613 20.6885 32.9774 20.6885 32.9936C20.6885 32.9936 20.8397 34.0096 20.8901 34.2999L19.8654 35.0902C19.8486 35.1063 19.8486 35.1063 19.8486 35.1224C19.8486 35.1385 19.8654 35.1385 19.8654 35.1547C19.8654 35.1547 20.8565 35.3805 21.1589 35.445C21.2429 35.7353 21.5621 36.7029 21.5621 36.7029C21.5621 36.7191 21.5789 36.7191 21.5957 36.7191C21.6125 36.7191 21.6125 36.7191 21.6292 36.7029C21.6292 36.7029 22.15 35.7836 22.318 35.5417L23.6954 35.5095C23.7122 35.5095 23.7122 35.5095 23.729 35.4934C23.7458 35.4772 23.7458 35.4611 23.729 35.4611Z" fill="black"/>
<path d="M22.805 35.0585L22.3682 34.5746L22.5362 33.9454C22.5362 33.9293 22.5362 33.9293 22.5194 33.9132C22.5026 33.9132 22.5026 33.897 22.4858 33.9132L21.8642 34.1874L21.3267 33.8486C21.3099 33.8486 21.3099 33.8486 21.2931 33.8486C21.2763 33.8486 21.2763 33.8648 21.2763 33.8809L21.3939 34.4617L20.8396 34.8811C20.8396 34.8811 20.8228 34.8972 20.8228 34.9134C20.8228 34.9295 20.8396 34.9295 20.8396 34.9295L21.5283 35.0747L21.6795 35.6554C21.6795 35.6716 21.6963 35.6716 21.7131 35.6716C21.7299 35.6716 21.7299 35.6716 21.7467 35.6554L22.0826 35.1231L22.7714 35.1069C22.7882 35.1069 22.7882 35.0908 22.805 35.0908C22.805 35.0908 22.805 35.0747 22.805 35.0585Z" fill="white"/>
<path d="M47.9519 35.0742L46.9272 34.2839C46.9776 33.9936 47.1288 32.9776 47.1288 32.9776C47.1288 32.9614 47.1288 32.9614 47.112 32.9453C47.0952 32.9453 47.0952 32.9453 47.0784 32.9453C47.0784 32.9453 46.1881 33.5582 45.9361 33.7033L44.6594 33.1711C44.6426 33.1711 44.6426 33.1711 44.6258 33.1711C44.609 33.1872 44.609 33.1872 44.609 33.2034C44.609 33.2034 44.8946 34.171 44.9786 34.4613C44.777 34.6871 44.0883 35.4451 44.0883 35.4451C44.0715 35.4612 44.0715 35.4612 44.0883 35.4774C44.0883 35.4935 44.1051 35.4935 44.1219 35.4935L45.4993 35.5257C45.6673 35.7677 46.1881 36.6869 46.1881 36.6869C46.1881 36.7031 46.2049 36.7031 46.2217 36.7031C46.2385 36.7031 46.2385 36.6869 46.2553 36.6869C46.2553 36.6869 46.5744 35.7031 46.6584 35.429C46.9608 35.3645 47.9519 35.1387 47.9519 35.1387C47.9687 35.1387 47.9687 35.1225 47.9687 35.1225C47.9687 35.1064 47.9687 35.0903 47.9519 35.0742Z" fill="black"/>
<path d="M47.0112 34.8811L46.4568 34.4617L46.5744 33.8809C46.5744 33.8648 46.5744 33.8486 46.5576 33.8486C46.5408 33.8486 46.524 33.8486 46.524 33.8486L45.9697 34.1874L45.3481 33.9132C45.3313 33.9132 45.3313 33.9132 45.3145 33.9132C45.2977 33.9132 45.2977 33.9293 45.2977 33.9454L45.4657 34.5746L45.029 35.0585C45.029 35.0747 45.0122 35.0747 45.029 35.0908C45.029 35.1069 45.0457 35.1069 45.0625 35.1069L45.7513 35.1231L46.0872 35.6554C46.0872 35.6716 46.104 35.6716 46.104 35.6716C46.1208 35.6716 46.1208 35.6554 46.1376 35.6554L46.2888 35.0747L46.9776 34.9295C46.9944 34.9295 46.9944 34.9134 46.9944 34.9134C47.028 34.8972 47.0112 34.8972 47.0112 34.8811Z" fill="white"/>
<path d="M44.5086 31.9451C44.5086 37.5107 39.805 42.0277 34.0096 42.0277C32.7498 42.0277 31.5403 41.818 30.4148 41.4308C26.3832 40.0273 23.5107 36.3169 23.5107 31.9613C23.5107 27.5894 26.4 23.8629 30.4652 22.4756C31.5739 22.0884 32.7666 21.8787 34.0096 21.8787C39.805 21.8787 44.5086 26.3795 44.5086 31.9451Z" fill="url(#paint13_linear)"/>
<path d="M43.9038 28.5896C34.7487 26.2343 24.0986 28.6058 24.0986 28.6058C25.1401 25.7504 27.4919 23.4919 30.4484 22.4756C31.5571 22.0884 32.7497 21.8787 33.9928 21.8787C38.5787 21.8787 42.4591 24.6857 43.9038 28.5896Z" fill="#009247"/>
<path d="M43.9038 35.3006C34.7487 37.6559 24.0986 35.2844 24.0986 35.2844C25.1401 38.1398 27.4919 40.3983 30.4484 41.4147C31.5571 41.8018 32.7497 42.0115 33.9928 42.0115C38.5787 42.0277 42.4591 39.2207 43.9038 35.3006Z" fill="black"/>
<path d="M35.6385 27.9443C40.1237 28.154 43.1137 28.767 43.1137 28.767C44.0544 29.6704 44.0041 33.4776 43.1473 35.0908C43.1473 35.0908 39.9221 35.7522 36.3105 35.9136C33.6899 36.0265 30.4479 35.7684 30.4479 35.7684C30.4479 35.7684 30.3135 34.6714 30.3135 31.9612C30.3135 29.2348 30.4479 28.1056 30.4479 28.1056C30.4479 28.1056 33.186 27.8313 35.6385 27.9443Z" fill="url(#paint14_linear)"/>
<path d="M29.7432 31.7354C29.7432 37.4784 30.4319 41.4308 30.4319 41.4308C26.4003 40.0273 23.5278 36.3169 23.5278 31.9612C23.5278 27.5894 26.4171 23.8629 30.4823 22.4755C30.4655 22.4594 29.7432 25.8794 29.7432 31.7354Z" fill="#ED1C24"/>
<path d="M51.5134 76.4207C51.6814 76.9046 51.3286 77.4529 50.7239 77.6465C50.2032 77.8077 49.6656 77.6142 49.4473 77.2433C49.6152 77.4529 49.9344 77.5497 50.2536 77.4529C50.6567 77.34 50.9087 76.9691 50.7911 76.6465C50.6231 76.1466 50.4719 75.6627 50.3208 75.1628C50.2704 74.9854 50.0856 74.9047 49.8672 74.9692C50.1192 74.566 50.3712 74.1628 50.6231 73.7596C50.9087 74.6467 51.2111 75.5337 51.5134 76.4207Z" fill="white"/>
<path d="M30.3311 79.8429C30.5327 79.859 30.7175 79.7297 30.7342 79.5518C30.751 79.3902 30.5831 79.2285 30.3815 79.2123C30.1631 79.1961 29.9951 79.3255 29.9783 79.4872C29.9615 79.6812 30.1127 79.8267 30.3311 79.8429Z" fill="white"/>
<path d="M20.3025 73.1306C20.1177 73.0821 19.9161 73.1791 19.8657 73.3408C19.8153 73.5024 19.9329 73.6803 20.1177 73.7288C20.3025 73.7773 20.4872 73.6965 20.5376 73.5186C20.6048 73.3569 20.4872 73.1791 20.3025 73.1306Z" fill="white"/>
<path d="M45.029 74.276C44.8442 74.3083 44.7098 74.4862 44.7434 74.6479C44.777 74.8095 44.9618 74.9227 45.1634 74.8742C45.3482 74.8419 45.4826 74.664 45.4322 74.5023C45.3986 74.3407 45.2138 74.2436 45.029 74.276Z" fill="white"/>
<path d="M31.8598 79.9236C32.0782 79.9398 32.2462 79.8104 32.2462 79.6326C32.2462 79.4709 32.095 79.3092 31.8766 79.3092C31.6582 79.293 31.4902 79.4386 31.4902 79.6002C31.4902 79.7781 31.6414 79.9075 31.8598 79.9236Z" fill="white"/>
<path d="M29.4239 79.7784C29.6255 79.7946 29.8103 79.6814 29.8271 79.5035C29.8439 79.3418 29.6759 79.1801 29.4743 79.164C29.256 79.1478 29.0712 79.2772 29.0544 79.4388C29.0376 79.6005 29.2056 79.7461 29.4239 79.7784Z" fill="white"/>
<path d="M21.1084 73.3403C20.9236 73.2918 20.722 73.3888 20.6884 73.5505C20.638 73.7122 20.7556 73.89 20.9572 73.9385C21.142 73.987 21.3267 73.89 21.3771 73.7283C21.4107 73.5505 21.2931 73.3888 21.1084 73.3403Z" fill="white"/>
<path d="M45.8521 74.0984C45.6674 74.147 45.5498 74.3086 45.5834 74.4865C45.617 74.6482 45.8017 74.7614 46.0033 74.7129C46.1881 74.6643 46.3057 74.5027 46.2721 74.341C46.2217 74.1631 46.0369 74.0661 45.8521 74.0984Z" fill="white"/>
<path d="M59.1737 73.0499C59.0729 72.8563 58.9722 72.6789 58.8882 72.4853C58.1155 71.0011 57.3427 69.517 56.5532 68.049C56.99 68.1619 57.4435 68.2587 57.8971 68.3716C57.6787 68.549 57.6955 68.7426 57.7963 68.9201C58.485 70.1945 59.1737 71.4528 59.8625 72.7273C59.6273 72.8402 59.3921 72.9531 59.1737 73.0499Z" fill="white"/>
<path d="M40.8801 78.3573C40.645 76.5021 40.4098 74.6631 40.1914 72.8079C40.561 73.066 40.9305 73.308 41.3169 73.5499C41.0481 73.6467 41.0145 73.8403 41.0481 74.0339C41.2497 75.4535 41.4345 76.8732 41.636 78.2766C41.3841 78.2928 41.1321 78.325 40.8801 78.3573Z" fill="white"/>
<path d="M25.5601 78.067C25.8624 76.2279 26.1648 74.3889 26.484 72.5337C26.7695 72.8725 27.0551 73.2112 27.3575 73.5339C27.0719 73.55 26.9711 73.7275 26.9543 73.921C26.7359 75.3407 26.5176 76.7442 26.316 78.1638C26.0472 78.1315 25.7952 78.0993 25.5601 78.067Z" fill="white"/>
<path d="M49.279 76.7441C49.2286 76.5505 49.1614 76.3408 49.111 76.1472C48.6407 74.5501 48.1703 72.953 47.7168 71.356C48.12 71.5495 48.5399 71.7431 48.9599 71.9206C48.7079 72.0496 48.6911 72.2594 48.7583 72.4368C49.1782 73.808 49.5982 75.1793 50.0182 76.5505C49.7494 76.615 49.5142 76.6796 49.279 76.7441Z" fill="white"/>
<path d="M48.5405 76.9369C48.2717 75.937 47.9861 74.937 47.7174 73.9371C47.4486 74.3081 47.1798 74.6629 46.8942 75.0338C47.1966 75.0338 47.2974 75.1951 47.3478 75.3725C47.4486 75.7595 47.5494 76.1466 47.6502 76.5176C46.5751 76.7756 45.5 77.0014 44.4081 77.1949C44.2569 77.2272 44.1225 77.2433 43.9713 77.2755C43.753 77.1465 43.5178 77.0175 43.2994 76.8885C43.8034 76.3885 44.1225 75.5176 43.9377 74.7758C43.8202 75.8079 43.333 76.5337 42.1235 76.953C42.6611 77.2917 43.2154 77.6304 43.7866 77.9529C44.0385 77.9045 44.2737 77.8723 44.5257 77.8239C45.8695 77.5658 47.2134 77.2755 48.5405 76.9369Z" fill="white"/>
<path d="M53.8313 73.0983C54.2848 73.2596 54.7552 73.4209 55.2255 73.5661C55.3767 73.9049 55.5279 74.2598 55.6791 74.5986C55.3263 74.7438 54.9735 74.8728 54.6208 75.018C54.5368 74.8244 54.4696 74.6308 54.3856 74.4372C54.5032 74.3888 54.6208 74.3405 54.7384 74.3082C54.7048 74.2275 54.6712 74.1469 54.6376 74.0823C54.4864 74.0339 54.3184 73.9855 54.1672 73.9371C54.0664 73.6468 53.9489 73.3725 53.8313 73.0983ZM52.1346 75.8891C52.0674 75.6955 52.0002 75.502 51.9331 75.2922C51.3787 73.7274 50.8244 72.1465 50.27 70.5817C50.69 70.7591 51.1099 70.9204 51.5467 71.0818C51.3115 71.227 51.3115 71.4367 51.3619 71.6141C51.7819 72.7595 52.2186 73.921 52.6386 75.0664C52.8738 74.9857 53.1089 74.9051 53.3441 74.8244C53.2769 74.6631 53.2265 74.5179 53.1593 74.3566C53.3945 73.9371 53.6297 73.5177 53.8481 73.0983C53.9657 73.3725 54.0664 73.6468 54.184 73.9049C54.1168 74.0501 54.0328 74.1791 53.9489 74.3243C53.9824 74.405 54.016 74.4856 54.0496 74.5502C54.1672 74.5018 54.2848 74.4695 54.4024 74.4211C54.4864 74.6147 54.5536 74.8083 54.6376 75.0019C54.0496 75.2277 53.4449 75.4374 52.857 75.6471C52.8066 75.6633 52.7394 75.6794 52.689 75.7117C52.4874 75.7762 52.3026 75.8407 52.1346 75.8891Z" fill="white"/>
<path d="M36.8146 75.5665C37.0834 75.5827 37.4362 75.8085 37.5538 76.0182C37.8393 76.0021 38.1249 75.986 38.4105 75.9537C38.0913 76.6474 37.7553 77.3249 37.4026 78.0186C38.0577 77.9864 38.7128 77.938 39.3512 77.8734C39.2336 76.6635 39.116 75.4375 38.9984 74.2276C38.9816 74.034 38.8976 73.8565 38.612 73.8243C38.9312 73.5016 39.2336 73.179 39.5359 72.8563C39.7375 74.7115 39.9391 76.5667 40.1575 78.4219C39.9391 78.4381 39.7375 78.4703 39.5191 78.4865C39.4855 78.4865 39.452 78.4865 39.4184 78.5026C38.612 78.5671 37.8057 78.6317 36.9826 78.6639C36.9658 78.2445 36.949 77.8412 36.9154 77.4217C37.0498 77.1636 37.1842 76.9055 37.3186 76.6474C37.2514 76.6474 37.1674 76.6474 37.1002 76.6635C37.0666 76.4861 36.9994 76.3893 36.865 76.2925C36.8482 76.0505 36.8314 75.8085 36.8146 75.5665ZM34.5973 79.035C34.5973 79.5512 34.0933 79.9706 33.4718 79.9706C32.9342 79.9706 32.4807 79.6318 32.3799 79.2124C32.4807 79.4544 32.7494 79.648 33.0854 79.648C33.5054 79.6641 33.8413 79.3737 33.8413 79.035C33.8413 78.5187 33.8581 78.0025 33.8581 77.4863C33.8581 77.2927 33.7237 77.1636 33.5054 77.1636C33.8749 76.8571 34.2277 76.5506 34.5805 76.2279C34.5805 76.8571 34.5805 77.4701 34.5973 78.0993C35.2356 78.0993 35.8739 78.0832 36.5123 78.0509C36.0923 77.4056 35.6891 76.7442 35.3028 76.0989C35.5884 76.0989 35.8739 76.0828 36.1595 76.0828C36.2603 75.8569 36.5794 75.5988 36.8314 75.5665C36.8482 75.8085 36.8482 76.0666 36.865 76.3086C36.7474 76.4215 36.6802 76.5183 36.6802 76.6958C36.613 76.6958 36.5291 76.6958 36.4619 76.7119C36.613 76.9539 36.7642 77.1959 36.9322 77.4379C36.949 77.8573 36.9658 78.2606 36.9994 78.68C36.2099 78.7123 35.4204 78.7446 34.6309 78.7446C34.5973 78.8252 34.5973 78.9382 34.5973 79.035Z" fill="white"/>
<path d="M22.2344 77.454C22.8391 77.583 23.4607 77.7121 24.0822 77.8089C24.1158 77.8089 24.1326 77.825 24.1662 77.825C24.3846 77.8573 24.603 77.9057 24.8213 77.9379C25.1573 76.0989 25.4765 74.2598 25.8124 72.4207C25.4261 72.6466 25.0397 72.8724 24.6533 73.0983C24.9221 73.2112 24.9389 73.4048 24.9053 73.5823C24.6701 74.776 24.435 75.9859 24.1998 77.1797C23.9478 77.1313 23.7126 77.0829 23.4775 77.0507C23.5111 76.8894 23.5447 76.728 23.5783 76.5667C23.2759 76.1957 22.9903 75.8085 22.7047 75.4375C22.6376 75.7278 22.5704 76.0021 22.5032 76.2925C22.604 76.4215 22.7048 76.5506 22.8055 76.6635C22.7887 76.7442 22.7719 76.8248 22.7551 76.9055C22.6376 76.8732 22.5032 76.8571 22.3856 76.8248C22.3352 77.0507 22.2848 77.2443 22.2344 77.454ZM17.5141 75.5665C17.5477 75.4859 17.5645 75.4052 17.5981 75.3245C17.7661 74.8083 17.4133 74.2275 16.8086 74.0178C16.7582 74.0017 16.7246 73.9856 16.6742 73.9694C15.3303 73.5177 13.9865 73.0015 12.6594 72.453C12.7434 72.2594 12.8274 72.0658 12.9282 71.8884C13.0122 71.7271 13.1969 71.6625 13.3817 71.7432C13.1801 71.3237 12.9786 70.8882 12.7938 70.4688C12.441 71.227 12.0715 71.969 11.7187 72.7273C13.3145 73.4371 14.944 74.0662 16.5902 74.6147C16.8254 74.6954 16.9597 74.9051 16.8926 75.0987C16.859 75.1793 16.8422 75.26 16.8086 75.3407C16.7246 75.5504 16.6574 75.7762 16.5734 75.9859C16.4222 76.0505 16.271 76.0989 16.1198 76.1634C16.0358 76.0182 15.9519 75.873 15.8679 75.744C15.9519 75.5342 16.019 75.3245 16.103 75.1148C15.9351 75.0503 15.7503 75.0019 15.5823 74.9374C15.5151 74.9212 15.4647 74.889 15.3975 74.8728C14.0704 74.405 12.7434 73.8726 11.4499 73.308C11.3659 73.5016 11.2651 73.679 11.1812 73.8726C12.4914 74.4534 13.8353 74.9858 15.1791 75.4536C15.1455 75.5504 15.1119 75.6472 15.0615 75.744C15.3135 76.1634 15.5655 76.5828 15.8343 77.0023C16.3046 76.8248 16.7582 76.6635 17.2285 76.4699C17.2621 76.3731 17.2957 76.2602 17.3293 76.1634C17.8501 76.3247 18.3708 76.4699 18.8915 76.6312C18.9923 76.7764 19.1099 76.8894 19.2779 77.0023C19.2107 76.9055 19.1435 76.7926 19.0931 76.6958C19.5299 76.8087 19.9666 76.9216 20.4034 77.0345C21.0081 77.1797 21.6297 77.3249 22.2344 77.454C22.2848 77.2443 22.3352 77.0507 22.3688 76.841C22.2512 76.8087 22.1336 76.7926 22.016 76.7603C22.0328 76.6796 22.0496 76.599 22.0664 76.5183C22.2176 76.4377 22.352 76.3731 22.4864 76.2925C22.5536 76.0021 22.6208 75.7278 22.688 75.4375C22.268 75.6633 21.8312 75.8892 21.3945 76.115C21.3609 76.2763 21.3105 76.4377 21.2769 76.599C21.0249 76.5344 20.7898 76.486 20.5378 76.4215C20.7226 75.744 20.9073 75.0503 21.0921 74.3727C20.6722 74.5663 20.2354 74.7599 19.8155 74.9374C20.0842 75.0664 20.101 75.2761 20.0506 75.4536C19.9834 75.7117 19.8994 75.9698 19.8323 76.2441C19.7315 76.2118 19.6139 76.1957 19.5131 76.1634C19.3115 76.115 19.1099 76.0505 18.9083 76.0021C18.8915 75.7601 18.9419 75.502 18.9923 75.26C19.1603 74.5018 19.3787 73.6306 18.3708 72.5982C18.0852 72.7272 17.7829 72.8563 17.4973 72.9854C18.2028 73.1951 18.4884 73.8242 18.5892 74.3243C18.69 74.9374 18.354 75.3891 18.522 75.9053C18.2028 75.7762 17.8669 75.6794 17.5141 75.5665C17.5141 75.5665 17.5141 75.5826 17.5141 75.5665Z" fill="white"/>
<path d="M28.5848 77.825C28.7024 77.8412 28.8367 77.8573 28.9543 77.8573C28.9879 77.5992 29.0047 77.3249 29.0383 77.0668C28.9207 77.1152 28.7863 77.1475 28.652 77.1636C28.6856 76.9378 28.7024 76.6958 28.736 76.4699C28.9039 76.4054 29.1223 76.2763 29.1559 76.0021C29.2231 75.4052 29.2735 74.8083 29.3407 74.2114C29.3575 74.0178 29.3071 73.8242 29.0551 73.7436C29.4247 73.4855 29.7942 73.2274 30.147 72.9692C29.9958 74.6309 29.8614 76.2763 29.7102 77.938C30.0966 77.9702 30.4998 78.0025 30.9029 78.0186C30.9197 77.7444 30.9365 77.4701 30.9533 77.212C30.9701 77.0184 30.9029 76.8248 30.6174 76.7603C31.0037 76.4861 31.3733 76.2279 31.7428 75.9537C31.7092 76.6635 31.6756 77.3733 31.642 78.067C31.894 78.0832 32.1292 78.0832 32.3812 78.0993C32.398 77.825 32.398 77.5508 32.4148 77.2927C32.4148 77.0991 32.3644 76.9216 32.0788 76.841C32.4484 76.5667 32.8179 76.2925 33.1875 76.0021C33.1707 76.9216 33.1539 77.825 33.1203 78.7446C32.0116 78.7284 30.9197 78.6639 29.811 78.5833C29.3911 78.551 28.9711 78.5187 28.5512 78.4703C28.5344 78.2283 28.568 78.0348 28.5848 77.825ZM28.6016 77.1636C28.4168 77.1798 28.2824 77.2927 28.2656 77.454C28.2488 77.5669 28.232 77.6637 28.2152 77.7766C28.3328 77.7928 28.4672 77.8089 28.5848 77.8089C28.568 78.0186 28.5344 78.2122 28.5176 78.4219C28.4336 78.4058 28.3496 78.4058 28.2824 78.3897C27.98 78.3574 27.6945 78.3251 27.3921 78.2929C27.4257 77.9864 27.4761 77.6637 27.5097 77.3572C27.5769 76.9055 27.9968 76.5667 28.5008 76.5345C28.5176 76.5183 28.6016 76.5022 28.7192 76.4538C28.6856 76.6796 28.6688 76.9216 28.6352 77.1475C28.6352 77.1636 28.6184 77.1636 28.6016 77.1636Z" fill="white"/>
<path d="M9.71993 72.5015C9.83752 72.5499 9.9551 72.6144 10.0559 72.6628C10.1735 72.4209 10.2911 72.195 10.4255 71.953C10.3079 71.953 10.1567 71.9369 10.0223 71.9046C10.1231 71.6949 10.2407 71.4852 10.3415 71.2755C10.5262 71.2755 10.7782 71.2271 10.9126 70.9851C11.1814 70.4527 11.4669 69.9204 11.7357 69.3719C11.8197 69.2105 11.8533 69.0008 11.6349 68.8395C12.0885 68.7266 12.5252 68.6137 12.962 68.5007C12.1221 70.1785 11.2822 71.8724 10.4591 73.5501C10.1063 73.3888 9.77033 73.2275 9.41756 73.0662C9.51835 72.8726 9.61914 72.679 9.71993 72.5015ZM9.9719 71.9046C9.78712 71.8562 9.60234 71.9208 9.53515 72.0498C9.48475 72.1466 9.43436 72.2434 9.38396 72.3241C9.50155 72.3886 9.60234 72.437 9.71993 72.5015C9.61914 72.6951 9.51835 72.8726 9.43436 73.0662C9.09839 72.9048 8.74563 72.7274 8.40967 72.5661C8.56085 72.2757 8.71204 72.0014 8.86322 71.7272C9.0816 71.3239 9.61914 71.1625 10.1063 71.3077C10.1231 71.2916 10.2239 71.3077 10.3415 71.3077C10.2407 71.5175 10.1231 71.7272 10.0223 71.9369C10.0055 71.9046 9.9887 71.9046 9.9719 71.9046Z" fill="white"/>
<path d="M56.755 71.5496C56.2846 70.5816 55.7975 69.5976 55.3271 68.6296C55.7975 68.7748 56.2846 68.92 56.7718 69.0652C56.5534 69.2427 56.503 69.4685 56.587 69.6298C56.9062 70.2429 57.2085 70.8559 57.5277 71.485C57.4269 71.7109 57.3261 71.9529 57.2253 72.1787C57.4773 72.2432 57.7293 72.3078 57.9813 72.3723C58.1492 72.7111 58.3172 73.0498 58.4852 73.3886C58.1325 73.5499 57.7965 73.7113 57.4437 73.8565C57.3597 73.6629 57.2589 73.4854 57.1749 73.2918C57.2925 73.2434 57.4101 73.195 57.5277 73.1305C57.4941 73.0499 57.4605 72.9853 57.4101 72.9047C57.2421 72.8563 57.091 72.824 56.923 72.7756C56.7886 72.5175 56.671 72.2432 56.5366 71.9851C56.6206 71.8399 56.6878 71.6947 56.755 71.5496ZM57.4605 73.8565C57.1078 74.0178 56.7718 74.163 56.419 74.3082C56.2678 73.9694 56.0999 73.6145 55.9487 73.2757C56.0663 73.0498 56.1671 72.824 56.2846 72.5981C56.0327 72.5175 55.7807 72.453 55.5455 72.3723C55.5287 72.34 55.5119 72.2916 55.4951 72.2594C55.2264 71.6625 54.9576 71.0817 54.6888 70.4848C54.6048 70.3235 54.4032 70.1945 54.1177 70.2429C54.3193 69.7912 54.5208 69.3556 54.7224 68.9039C55.1928 69.8879 55.6463 70.872 56.1167 71.8561C56.2678 71.9045 56.419 71.9529 56.587 72.0013C56.7214 72.2594 56.839 72.5336 56.9734 72.7917C56.9062 72.9369 56.839 73.0821 56.7718 73.2273C56.8054 73.308 56.839 73.3725 56.8726 73.4532C56.9902 73.4048 57.1078 73.3564 57.2085 73.308C57.2757 73.4854 57.3597 73.6629 57.4605 73.8565Z" fill="white"/>
<path d="M58.1829 74.5663C58.3341 74.6146 58.4853 74.663 58.6364 74.7114C58.1661 74.9211 57.7125 75.1308 57.2422 75.3243C57.3094 75.1953 57.3598 75.0824 57.427 74.9533C57.4774 75.0017 57.5446 75.0017 57.6453 74.9533C57.3766 74.7276 57.6957 74.3566 58.0485 74.4695C58.0149 74.4534 57.9813 74.4695 57.9309 74.4856C57.8301 74.534 57.7797 74.6308 57.8301 74.7114C57.8637 74.7921 57.9813 74.8243 58.0653 74.7759C58.1493 74.7114 58.1997 74.6308 58.1829 74.5663Z" fill="white"/>
<defs>
<linearGradient id="paint0_linear" x1="7.51963" y1="73.8913" x2="60.5478" y2="73.8913" gradientUnits="userSpaceOnUse">
<stop stop-color="#BD1B21"/>
<stop offset="0.5169" stop-color="#ED1C24"/>
<stop offset="1" stop-color="#BD1B21"/>
</linearGradient>
<linearGradient id="paint1_linear" x1="57.2189" y1="48.1742" x2="59.6705" y2="42.1041" gradientUnits="userSpaceOnUse">
<stop stop-color="#CFB193"/>
<stop offset="0.073227" stop-color="#C3A381"/>
<stop offset="0.286" stop-color="#AA855C"/>
<stop offset="0.491" stop-color="#987041"/>
<stop offset="0.6834" stop-color="#8C6330"/>
<stop offset="0.8583" stop-color="#855B27"/>
<stop offset="1" stop-color="#825924"/>
</linearGradient>
<linearGradient id="paint2_linear" x1="10.7784" y1="48.1743" x2="8.32678" y2="42.104" gradientUnits="userSpaceOnUse">
<stop stop-color="#CFB193"/>
<stop offset="0.0885871" stop-color="#C1A07E"/>
<stop offset="0.2942" stop-color="#A9835A"/>
<stop offset="0.4935" stop-color="#987040"/>
<stop offset="0.6822" stop-color="#8C632F"/>
<stop offset="0.8557" stop-color="#845B27"/>
<stop offset="1" stop-color="#825924"/>
</linearGradient>
<linearGradient id="paint3_linear" x1="33.9992" y1="66.1726" x2="33.9992" y2="49.3691" gradientUnits="userSpaceOnUse">
<stop stop-color="white"/>
<stop offset="0.1603" stop-color="#F9F9F9"/>
<stop offset="0.3649" stop-color="#EAEAEA"/>
<stop offset="0.5937" stop-color="#CFCFCF"/>
<stop offset="0.8382" stop-color="#ABABAB"/>
<stop offset="1" stop-color="#8F8F8F"/>
</linearGradient>
<linearGradient id="paint4_linear" x1="56.6302" y1="40.2625" x2="59.4005" y2="34.3233" gradientUnits="userSpaceOnUse">
<stop stop-color="white"/>
<stop offset="0.1603" stop-color="#F9F9F9"/>
<stop offset="0.3649" stop-color="#EAEAEA"/>
<stop offset="0.5937" stop-color="#CFCFCF"/>
<stop offset="0.8382" stop-color="#ABABAB"/>
<stop offset="1" stop-color="#8F8F8F"/>
</linearGradient>
<linearGradient id="paint5_linear" x1="58.6538" y1="56.5355" x2="61.7161" y2="52.825" gradientUnits="userSpaceOnUse">
<stop stop-color="white"/>
<stop offset="0.1603" stop-color="#F9F9F9"/>
<stop offset="0.3649" stop-color="#EAEAEA"/>
<stop offset="0.5937" stop-color="#CFCFCF"/>
<stop offset="0.8382" stop-color="#ABABAB"/>
<stop offset="1" stop-color="#8F8F8F"/>
</linearGradient>
<linearGradient id="paint6_linear" x1="11.367" y1="40.2621" x2="8.59687" y2="34.3235" gradientUnits="userSpaceOnUse">
<stop stop-color="white"/>
<stop offset="0.1603" stop-color="#F9F9F9"/>
<stop offset="0.3649" stop-color="#EAEAEA"/>
<stop offset="0.5937" stop-color="#CFCFCF"/>
<stop offset="0.8382" stop-color="#ABABAB"/>
<stop offset="1" stop-color="#8F8F8F"/>
</linearGradient>
<linearGradient id="paint7_linear" x1="9.34277" y1="56.5358" x2="6.28034" y2="52.8252" gradientUnits="userSpaceOnUse">
<stop stop-color="white"/>
<stop offset="0.1603" stop-color="#F9F9F9"/>
<stop offset="0.3649" stop-color="#EAEAEA"/>
<stop offset="0.5937" stop-color="#CFCFCF"/>
<stop offset="0.8382" stop-color="#ABABAB"/>
<stop offset="1" stop-color="#8F8F8F"/>
</linearGradient>
<linearGradient id="paint8_linear" x1="14.2644" y1="50.741" x2="23.6415" y2="46.4725" gradientUnits="userSpaceOnUse">
<stop stop-color="#B7B7B7"/>
<stop offset="0.0791568" stop-color="#B2AEA9"/>
<stop offset="0.5216" stop-color="#988162"/>
<stop offset="0.8398" stop-color="#886435"/>
<stop offset="1" stop-color="#825924"/>
</linearGradient>
<linearGradient id="paint9_linear" x1="53.7321" y1="50.741" x2="44.3553" y2="46.4726" gradientUnits="userSpaceOnUse">
<stop stop-color="#B7B7B7"/>
<stop offset="0.0791568" stop-color="#B2AEA9"/>
<stop offset="0.5216" stop-color="#988162"/>
<stop offset="0.8398" stop-color="#886435"/>
<stop offset="1" stop-color="#825924"/>
</linearGradient>
<linearGradient id="paint10_linear" x1="1.14224" y1="20.3808" x2="10.9191" y2="24.3186" gradientUnits="userSpaceOnUse">
<stop stop-color="#B7B7B7"/>
<stop offset="1" stop-color="#825924"/>
</linearGradient>
<linearGradient id="paint11_linear" x1="49.9223" y1="11.4663" x2="44.1801" y2="22.7709" gradientUnits="userSpaceOnUse">
<stop stop-color="#B7B7B7"/>
<stop offset="0.128" stop-color="#ACA397"/>
<stop offset="0.319" stop-color="#9D886E"/>
<stop offset="0.506" stop-color="#91744E"/>
<stop offset="0.6853" stop-color="#896537"/>
<stop offset="0.8537" stop-color="#845C29"/>
<stop offset="1" stop-color="#825924"/>
</linearGradient>
<linearGradient id="paint12_linear" x1="29.9612" y1="6.23348" x2="29.3711" y2="3.42844" gradientUnits="userSpaceOnUse">
<stop stop-color="white"/>
<stop offset="1"/>
</linearGradient>
<linearGradient id="paint13_linear" x1="23.515" y1="31.9526" x2="44.5045" y2="31.9526" gradientUnits="userSpaceOnUse">
<stop offset="0.011236" stop-color="#D9D9D9"/>
<stop offset="0.0783824" stop-color="#E6E6E6"/>
<stop offset="0.1845" stop-color="#F4F4F4"/>
<stop offset="0.3157" stop-color="#FDFDFD"/>
<stop offset="0.544" stop-color="white"/>
<stop offset="0.6673" stop-color="#FBFBFB"/>
<stop offset="0.7843" stop-color="#F0F0F0"/>
<stop offset="0.8983" stop-color="#DDDDDD"/>
<stop offset="0.9725" stop-color="#CCCCCC"/>
</linearGradient>
<linearGradient id="paint14_linear" x1="36.0555" y1="32.0297" x2="29.492" y2="36.2973" gradientUnits="userSpaceOnUse">
<stop stop-color="white"/>
<stop offset="0.6292" stop-color="#CCCCCC"/>
</linearGradient>
</defs>
</svg>
